<?xml version="1.0" standalone="no"?>
<!DOCTYPE svg PUBLIC "-//W3C//DTD SVG 1.1//EN" "http://www.w3.org/Graphics/SVG/1.1/DTD/svg11.dtd" >
<svg xmlns="http://www.w3.org/2000/svg" xmlns:xlink="http://www.w3.org/1999/xlink" version="1.1">
<metadata>
Created by FontForge 20150824 at Sat Aug  6 14:21:03 2016
 By Everything Fonts
Copyright (c) Mark Simonson, 2005. All rights reserved.
</metadata>
<defs>
<font id="ProximaNovaRgRegular" horiz-adv-x="388" >
  <font-face 
    font-family="ProximaNovaRgRegular"
    font-weight="400"
    font-stretch="normal"
    units-per-em="1000"
    panose-1="0 0 5 0 0 0 0 0 0 0"
    ascent="790"
    descent="-210"
    x-height="483"
    cap-height="667"
    bbox="-172 -272 1082 886"
    underline-thickness="50"
    underline-position="-183"
    unicode-range="U+000D-F8FF"
  />
<missing-glyph horiz-adv-x="507" 
d="M78 752h351v-842h-351v842zM109 722v-782h288v782h-288z" />
    <glyph glyph-name=".notdef" horiz-adv-x="507" 
d="M78 752h351v-842h-351v842zM109 722v-782h288v782h-288z" />
    <glyph glyph-name=".null" horiz-adv-x="0" 
 />
    <glyph glyph-name="nonmarkingreturn" horiz-adv-x="333" 
 />
    <glyph glyph-name="CR" unicode="&#xd;" horiz-adv-x="0" 
 />
    <glyph glyph-name="space" unicode=" " horiz-adv-x="258" 
 />
    <glyph glyph-name="exclam" unicode="!" horiz-adv-x="230" 
d="M68 667h94l-16 -480h-62zM115 -10q-22 0 -38.5 16.5t-16.5 38.5q0 23 16 39t39 16t39 -16t16 -39q0 -22 -16.5 -38.5t-38.5 -16.5z" />
    <glyph glyph-name="quotedbl" unicode="&#x22;" horiz-adv-x="343" 
d="M118 412h-37q-27 205 -27 219q0 19 13 32.5t32 13.5t32.5 -13.5t13.5 -32.5zM263 412h-37q-27 205 -27 219q0 19 13.5 32.5t32.5 13.5t32 -13.5t13 -32.5z" />
    <glyph glyph-name="numbersign" unicode="#" horiz-adv-x="590" 
d="M300 181h-111l-60 -181h-62l61 181h-106l17 53h107l66 199h-108l16 52h110l60 182h62l-60 -182h110l60 182h61l-61 -182h107l-15 -52h-109l-67 -199h111l-16 -53h-113l-60 -181h-61zM273 433l-66 -199h110l66 199h-110z" />
    <glyph glyph-name="dollar" unicode="$" horiz-adv-x="593" 
d="M271 -100v89q-144 8 -229 105l49 63q73 -82 180 -94v244q-38 10 -61.5 18t-54.5 23.5t-49 33.5t-30.5 46t-12.5 64q0 77 58 128t150 56v92h61v-93q121 -12 197 -91l-50 -61q-59 63 -147 76v-217q47 -13 78 -25.5t65.5 -35t51.5 -57t17 -80.5q0 -76 -52 -131.5t-160 -63.5
v-89h-61zM271 398v204q-54 -4 -88 -32.5t-34 -72.5q0 -38 31 -59.5t91 -39.5zM332 290v-227q65 7 95.5 40t30.5 74q0 45 -32.5 70t-93.5 43z" />
    <glyph glyph-name="percent" unicode="%" horiz-adv-x="731" 
d="M191 348q-71 0 -115.5 46.5t-44.5 116.5q0 71 45 118.5t115 47.5q71 0 116.5 -47.5t45.5 -118.5q0 -70 -45.5 -116.5t-116.5 -46.5zM554 667h55l-427 -667h-54zM191 398q44 0 73 32.5t29 80.5q0 50 -28.5 82.5t-73.5 32.5q-44 0 -72 -32.5t-28 -82.5q0 -48 28 -80.5
t72 -32.5zM539 -12q-71 0 -115.5 46.5t-44.5 116.5q0 71 45 118.5t115 47.5q71 0 116 -47.5t45 -118.5q0 -70 -45 -116.5t-116 -46.5zM539 38q44 0 73 32.5t29 80.5q0 50 -28.5 82.5t-73.5 32.5t-73 -32.5t-28 -82.5q0 -48 28.5 -80.5t72.5 -32.5z" />
    <glyph glyph-name="ampersand" unicode="&#x26;" horiz-adv-x="641" 
d="M613 0h-104q-30 26 -73 70q-82 -82 -192 -82q-91 0 -149.5 48.5t-58.5 137.5q0 71 39 116t108 82q-51 87 -51 150q0 66 48.5 110.5t119.5 44.5q67 0 109 -34.5t42 -96.5q0 -36 -13 -64.5t-42 -52t-50.5 -36.5t-64.5 -35q32 -44 77 -95q36 -43 79 -89q44 65 72 152l65 -28
q-49 -114 -91 -172q50 -52 130 -126zM210 521q0 -47 40 -115q65 32 98.5 62t33.5 75q0 36 -22 55.5t-57 19.5q-39 0 -66 -27.5t-27 -69.5zM251 50q74 0 140 66q-66 69 -92 101q-46 53 -84 106q-47 -29 -72.5 -62.5t-25.5 -81.5q0 -60 39.5 -94.5t94.5 -34.5z" />
    <glyph glyph-name="quotesingle" unicode="'" horiz-adv-x="199" 
d="M118 412h-37q-27 205 -27 219q0 19 13 32.5t32 13.5t32.5 -13.5t13.5 -32.5z" />
    <glyph glyph-name="parenleft" unicode="(" horiz-adv-x="248" 
d="M230 -164l-45 -35q-141 193 -141 442q0 248 141 442l45 -34q-53 -105 -78.5 -198t-25.5 -210t25.5 -210.5t78.5 -196.5z" />
    <glyph glyph-name="parenright" unicode=")" horiz-adv-x="248" 
d="M62 -199l-45 35q53 103 79 196.5t26 210.5q0 118 -26 211t-79 197l45 34q142 -193 142 -442q0 -250 -142 -442z" />
    <glyph glyph-name="asterisk" unicode="*" horiz-adv-x="340" 
d="M152 504l-96 -63l-22 40l102 52l-102 52l22 39l96 -62l-5 115h46l-6 -115l96 62l23 -39l-102 -52l102 -52l-23 -40l-96 63l6 -115h-46z" />
    <glyph glyph-name="plus" unicode="+" horiz-adv-x="499" 
d="M278 98h-57v213h-192v52h192v207h57v-207h192v-52h-192v-213z" />
    <glyph glyph-name="comma" unicode="," horiz-adv-x="230" 
d="M94 -127l-37 31q25 16 43.5 42.5t21.5 50.5q-4 -2 -14 -2q-21 0 -34.5 14.5t-13.5 36.5t15.5 38t37.5 16q26 0 44.5 -20.5t18.5 -55.5q0 -44 -23 -84.5t-59 -66.5z" />
    <glyph glyph-name="hyphen" unicode="-" horiz-adv-x="300" 
d="M30 275h240v-66h-240v66z" />
    <glyph glyph-name="period" unicode="." horiz-adv-x="230" 
d="M115 -10q-23 0 -39 16t-16 39t16 39t39 16t39 -16t16 -39t-16 -39t-39 -16z" />
    <glyph glyph-name="slash" unicode="/" horiz-adv-x="296" 
d="M237 687h59l-237 -707h-59z" />
    <glyph glyph-name="zero" unicode="0" horiz-adv-x="612" 
d="M306 -12q-66 0 -116.5 30.5t-80 81.5t-44 110t-14.5 123t14.5 123t44 109.5t80 81t116.5 30.5q65 0 116 -30.5t80.5 -81t44 -109.5t14.5 -123t-14.5 -123t-44 -110t-80.5 -81.5t-116 -30.5zM306 62q60 0 100 41.5t55 99.5t15 130t-15 130t-55 99t-100 41t-100 -41
t-55 -99t-15 -130t15 -130t55 -99.5t100 -41.5z" />
    <glyph glyph-name="one" unicode="1" horiz-adv-x="339" 
d="M178 557l-107 -113l-50 51l167 172h73v-667h-83v557z" />
    <glyph glyph-name="two" unicode="2" horiz-adv-x="588" 
d="M54 0v66q104 82 161.5 130.5t111 103t75.5 97t22 84.5q0 60 -41 91t-98 31q-115 0 -181 -84l-51 53q38 50 99.5 77.5t132.5 27.5q91 0 157.5 -51t66.5 -145q0 -93 -80 -185.5t-244 -221.5h327v-74h-458z" />
    <glyph glyph-name="three" unicode="3" horiz-adv-x="557" 
d="M84 522l-46 52q85 103 228 103q99 0 162.5 -47.5t63.5 -130.5q0 -66 -44 -105.5t-100 -49.5q55 -5 104.5 -48t49.5 -116q0 -85 -64 -138.5t-172 -53.5q-80 0 -142 31t-95 79l49 52q30 -40 79 -64t107 -24q73 0 114.5 33.5t41.5 91.5q0 60 -44.5 89t-121.5 29
q-59 0 -69 -1v76q11 -1 69 -1q68 0 111.5 27.5t43.5 82.5q0 53 -42.5 83.5t-106.5 30.5q-101 0 -176 -81z" />
    <glyph glyph-name="four" unicode="4" horiz-adv-x="558" 
d="M349 169h-317v69l286 429h114v-425h94v-73h-94v-169h-83v169zM115 242h234v348z" />
    <glyph glyph-name="five" unicode="5" horiz-adv-x="590" 
d="M170 593v-232q60 60 156 60q88 0 150 -57.5t62 -155.5q0 -100 -67 -160t-170 -60q-154 0 -235 107l51 55q69 -88 184 -88q68 0 111 41t43 102q0 65 -42.5 104.5t-110.5 39.5q-90 0 -154 -63l-61 21v360h408v-74h-325z" />
    <glyph glyph-name="six" unicode="6" horiz-adv-x="591" 
d="M507 597l-42 -62q-58 68 -143 68q-62 0 -105.5 -39t-63 -96.5t-19.5 -126.5q0 -17 1 -26q25 40 77.5 72t111.5 32q95 0 156.5 -55.5t61.5 -157.5q0 -91 -64 -154.5t-170 -63.5q-67 0 -118 28t-80.5 76.5t-44 109t-14.5 130.5q0 94 28 170t90.5 125.5t152.5 49.5
q115 0 185 -80zM305 62q72 0 112.5 43.5t40.5 97.5q0 70 -43 107t-111 37q-49 0 -94 -27.5t-73 -72.5q7 -74 48 -129.5t120 -55.5z" />
    <glyph glyph-name="seven" unicode="7" horiz-adv-x="515" 
d="M390 593h-359v74h455v-57l-273 -610h-92z" />
    <glyph glyph-name="eight" unicode="8" horiz-adv-x="581" 
d="M291 -12q-102 0 -170.5 49t-68.5 132q0 63 45.5 109t113.5 66q-64 18 -106 58.5t-42 101.5q0 84 68 128.5t160 44.5t160.5 -44.5t68.5 -128.5q0 -61 -42 -101.5t-107 -58.5q68 -20 113.5 -66t45.5 -109q0 -82 -68.5 -131.5t-170.5 -49.5zM291 378q20 3 40.5 10t46.5 19.5
t42 35t16 50.5q0 50 -41.5 80t-103.5 30q-63 0 -104 -30t-41 -80q0 -28 16 -50.5t42 -35t46.5 -19t40.5 -10.5zM291 62q64 0 109.5 32t45.5 84q0 40 -31.5 70.5t-64 43t-59.5 15.5q-27 -3 -59.5 -15.5t-64.5 -43t-32 -70.5q0 -52 45.5 -84t110.5 -32z" />
    <glyph glyph-name="nine" unicode="9" horiz-adv-x="591" 
d="M84 69l42 62q58 -68 143 -68q64 0 108 40t62 97t18 124q0 18 -1 27q-25 -40 -77 -72t-111 -32q-95 0 -157 55.5t-62 157.5q0 90 64 154t169 64q68 0 119 -28t80.5 -77t44 -109t14.5 -131q0 -94 -28 -169.5t-90.5 -125t-152.5 -49.5q-115 0 -185 80zM287 319q49 0 94.5 27
t71.5 72q-6 74 -47 130t-120 56q-71 0 -112 -44t-41 -97q0 -70 43 -107t111 -37z" />
    <glyph glyph-name="colon" unicode=":" horiz-adv-x="230" 
d="M115 380q-23 0 -39 16t-16 39t16 39t39 16t39 -16t16 -39t-16 -39t-39 -16zM115 -10q-23 0 -39 16t-16 39t16 39t39 16t39 -16t16 -39t-16 -39t-39 -16z" />
    <glyph glyph-name="semicolon" unicode=";" horiz-adv-x="230" 
d="M115 380q-22 0 -38.5 16.5t-16.5 38.5q0 23 16 39t39 16t39 -16t16 -39q0 -22 -16.5 -38.5t-38.5 -16.5zM94 -125l-37 30q24 16 43 43t22 51q-6 -3 -14 -3q-21 0 -34.5 14.5t-13.5 36.5q0 23 15.5 39t37.5 16q26 0 44.5 -20.5t18.5 -55.5q0 -45 -23 -85.5t-59 -65.5z" />
    <glyph glyph-name="less" unicode="&#x3c;" horiz-adv-x="499" 
d="M29 361l441 219v-63l-377 -183l377 -182v-62l-441 218v53z" />
    <glyph glyph-name="equal" unicode="=" horiz-adv-x="499" 
d="M29 457h441v-53h-441v53zM29 263h441v-52h-441v52z" />
    <glyph glyph-name="greater" unicode="&#x3e;" horiz-adv-x="499" 
d="M29 152l376 182l-376 183v63l441 -219v-53l-441 -218v62z" />
    <glyph glyph-name="question" unicode="?" horiz-adv-x="462" 
d="M264 211l-61 -26q-39 33 -39 81q0 30 13.5 55t33.5 41t43.5 33.5t43.5 32.5t33.5 36t13.5 46q0 40 -30.5 66.5t-87.5 26.5q-97 0 -159 -82l-50 54q79 102 217 102q89 0 142.5 -44.5t53.5 -110.5q0 -51 -30.5 -90.5t-66.5 -60.5t-66.5 -50t-30.5 -61q0 -28 27 -49z
M224 -10q-22 0 -38.5 16t-16.5 39t16.5 39t38.5 16t38.5 -16t16.5 -39t-16.5 -39t-38.5 -16z" />
    <glyph glyph-name="at" unicode="@" horiz-adv-x="783" 
d="M542 19l18 -26q-98 -63 -208 -63q-136 0 -226.5 90.5t-90.5 223.5q0 160 119.5 277t277.5 117q139 0 227 -91.5t88 -225.5q0 -111 -52 -173.5t-121 -62.5q-40 0 -64.5 23.5t-26.5 57.5l-1 6q-27 -38 -69.5 -62.5t-88.5 -24.5q-69 0 -111 45t-42 118q0 102 72 176.5
t163 74.5q46 0 79.5 -22t48.5 -56l13 62h68l-57 -271q-2 -12 -2 -21q0 -25 13.5 -38.5t33.5 -13.5q38 0 73 45t35 137q0 124 -78.5 203.5t-204.5 79.5q-144 0 -251.5 -108.5t-107.5 -249.5q0 -121 81.5 -202t205.5 -81q97 0 186 56zM493 231l29 138q-10 29 -36.5 51.5
t-66.5 22.5q-73 0 -125 -58.5t-52 -132.5q0 -49 27.5 -80t74.5 -31q87 0 149 90z" />
    <glyph glyph-name="A" unicode="A" horiz-adv-x="658" 
d="M495 148h-332l-59 -148h-95l268 667h103l269 -667h-95zM187 222h283l-141 359z" />
    <glyph glyph-name="B" unicode="B" horiz-adv-x="629" 
d="M78 667h297q86 0 136.5 -47t50.5 -123q0 -60 -34 -101.5t-83 -51.5q53 -8 91.5 -56t38.5 -108q0 -81 -51.5 -130.5t-141.5 -49.5h-304v667zM161 378h200q55 0 85 30t30 77t-30.5 77.5t-84.5 30.5h-200v-215zM161 74h204q58 0 91 31t33 84q0 49 -32.5 82t-91.5 33h-204
v-230z" />
    <glyph glyph-name="C" unicode="C" horiz-adv-x="676" 
d="M577 159l71 -39q-97 -132 -254 -132q-146 0 -244.5 96.5t-98.5 248.5t98.5 248.5t244.5 96.5q160 0 253 -132l-70 -39q-29 43 -78 70t-105 27q-110 0 -183.5 -76.5t-73.5 -194.5t73.5 -194.5t183.5 -76.5q56 0 105 26.5t78 70.5z" />
    <glyph glyph-name="D" unicode="D" horiz-adv-x="700" 
d="M78 667h228q153 0 247.5 -95t94.5 -239q0 -145 -94.5 -239t-247.5 -94h-228v667zM161 74h145q118 0 187 74t69 185q0 112 -68 186t-188 74h-145v-519z" />
    <glyph glyph-name="E" unicode="E" horiz-adv-x="569" 
d="M78 667h437v-74h-354v-215h347v-74h-347v-230h354v-74h-437v667z" />
    <glyph glyph-name="F" unicode="F" horiz-adv-x="550" 
d="M78 667h437v-74h-354v-215h347v-74h-347v-304h-83v667z" />
    <glyph glyph-name="G" unicode="G" horiz-adv-x="713" 
d="M656 343v-241q-103 -115 -262 -115q-145 0 -244 96.5t-99 249.5t99 249t244 96q158 0 259 -125l-66 -41q-32 42 -83.5 67t-109.5 25q-110 0 -183.5 -76.5t-73.5 -194.5t73.5 -195t183.5 -77q55 0 102.5 21.5t76.5 50.5v136h-229v74h312z" />
    <glyph glyph-name="H" unicode="H" horiz-adv-x="712" 
d="M551 306h-390v-306h-83v667h83v-287h390v287h83v-667h-83v306z" />
    <glyph glyph-name="I" unicode="I" horiz-adv-x="239" 
d="M78 667h83v-667h-83v667z" />
    <glyph glyph-name="J" unicode="J" horiz-adv-x="475" 
d="M397 667v-466q0 -104 -59 -158.5t-153 -54.5q-108 0 -174 77l43 63q55 -66 126 -66q61 0 97.5 38.5t36.5 101.5v465h83z" />
    <glyph glyph-name="K" unicode="K" horiz-adv-x="601" 
d="M228 300l-67 -76v-224h-83v667h83v-345l295 345h104l-278 -317l302 -350h-103z" />
    <glyph glyph-name="L" unicode="L" horiz-adv-x="510" 
d="M78 667h83v-593h310v-74h-393v667z" />
    <glyph glyph-name="M" unicode="M" horiz-adv-x="809" 
d="M648 549l-227 -549h-34l-226 549v-549h-83v667h119l207 -502l208 502h119v-667h-83v549z" />
    <glyph glyph-name="N" unicode="N" horiz-adv-x="708" 
d="M161 532v-532h-83v667h85l384 -521v521h83v-667h-80z" />
    <glyph glyph-name="O" unicode="O" horiz-adv-x="765" 
d="M382 -12q-147 0 -239 98t-92 247t92 247t239 98q146 0 238.5 -98t92.5 -247t-92.5 -247t-238.5 -98zM382 62q110 0 177.5 76.5t67.5 194.5q0 119 -67.5 195t-177.5 76q-111 0 -178 -76t-67 -195q0 -118 67 -194.5t178 -76.5z" />
    <glyph glyph-name="P" unicode="P" horiz-adv-x="587" 
d="M78 667h268q97 0 153 -58t56 -143t-56.5 -143t-152.5 -58h-185v-265h-83v667zM161 339h175q59 0 96 35.5t37 91.5t-37 91.5t-96 35.5h-175v-254z" />
    <glyph glyph-name="Q" unicode="Q" horiz-adv-x="765" 
d="M627 -31l-65 69q-78 -50 -180 -50q-147 0 -239 98t-92 247t92 247t239 98q146 0 238.5 -98t92.5 -247t-92 -246l64 -68zM472 248l94 -102q61 75 61 187q0 119 -67.5 195t-177.5 76q-111 0 -178 -76t-67 -195q0 -118 67 -194.5t178 -76.5q71 0 127 34l-95 103z" />
    <glyph glyph-name="R" unicode="R" horiz-adv-x="608" 
d="M294 265h-133v-265h-83v667h268q93 0 151 -55t58 -146q0 -86 -50 -137t-123 -57l180 -272h-98zM161 338h175q59 0 96 36t37 92t-37 91.5t-96 35.5h-175v-255z" />
    <glyph glyph-name="S" unicode="S" horiz-adv-x="586" 
d="M525 584l-50 -61q-73 80 -193 80q-60 0 -98.5 -29.5t-38.5 -76.5q0 -35 29.5 -58t73 -34t95 -27.5t95 -35t73 -59.5t29.5 -99q0 -82 -60.5 -139t-185.5 -57q-162 0 -256 106l49 63q85 -95 210 -95q81 0 119 34.5t38 80.5q0 35 -22 59t-56.5 37.5t-77 24.5t-84.5 24.5
t-76.5 32.5t-56.5 54t-22 83q0 82 65 133.5t164 51.5q149 0 237 -93z" />
    <glyph glyph-name="T" unicode="T" horiz-adv-x="570" 
d="M243 593h-211v74h506v-74h-212v-593h-83v593z" />
    <glyph glyph-name="U" unicode="U" horiz-adv-x="700" 
d="M622 667v-407q0 -127 -69.5 -199.5t-202.5 -72.5t-202.5 72.5t-69.5 198.5v408h83v-406q0 -93 49 -146t140 -53t140 53t49 146v406h83z" />
    <glyph glyph-name="V" unicode="V" horiz-adv-x="658" 
d="M9 667h95l225 -576l225 576h95l-269 -667h-103z" />
    <glyph glyph-name="W" unicode="W" horiz-adv-x="883" 
d="M441 538l-147 -538h-90l-190 667h92l148 -556l153 556h69l153 -556l147 556h92l-190 -667h-90z" />
    <glyph glyph-name="X" unicode="X" horiz-adv-x="652" 
d="M326 284l-213 -284h-101l260 342l-245 325h101l198 -267l197 267h101l-244 -324l259 -343h-100z" />
    <glyph glyph-name="Y" unicode="Y" horiz-adv-x="626" 
d="M272 282l-263 385h97l207 -310l207 310h97l-262 -385v-282h-83v282z" />
    <glyph glyph-name="Z" unicode="Z" horiz-adv-x="585" 
d="M48 69l375 524h-375v74h481v-69l-375 -524h382v-74h-488v69z" />
    <glyph glyph-name="bracketleft" unicode="[" horiz-adv-x="243" 
d="M40 678h186v-55h-128v-758h128v-55h-186v868z" />
    <glyph glyph-name="backslash" unicode="\" horiz-adv-x="296" 
d="M59 687l237 -707h-59l-237 707h59z" />
    <glyph glyph-name="bracketright" unicode="]" horiz-adv-x="243" 
d="M17 -135h128v758h-128v55h186v-868h-186v55z" />
    <glyph glyph-name="asciicircum" unicode="^" horiz-adv-x="432" 
d="M216 612l-135 -279h-62l169 334h57l168 -334h-62z" />
    <glyph glyph-name="underscore" unicode="_" horiz-adv-x="564" 
d="M-3 -40h570v-55h-570v55z" />
    <glyph glyph-name="grave" unicode="`" horiz-adv-x="226" 
d="M0 700h78l148 -144h-57z" />
    <glyph glyph-name="a" unicode="a" horiz-adv-x="527" 
d="M377 0v55q-61 -67 -160 -67q-67 0 -118 43t-51 117q0 76 50.5 117.5t118.5 41.5q103 0 160 -66v87q0 48 -34 75t-88 27q-85 0 -148 -67l-35 52q77 80 193 80q83 0 135 -40t52 -123v-332h-75zM377 102v91q-43 60 -133 60q-52 0 -85.5 -29.5t-33.5 -76.5q0 -46 33.5 -75.5
t85.5 -29.5q90 0 133 60z" />
    <glyph glyph-name="b" unicode="b" horiz-adv-x="575" 
d="M75 667h75v-257q63 85 163 85q95 0 155 -69.5t60 -184.5q0 -116 -59.5 -184.5t-155.5 -68.5q-101 0 -163 84v-72h-75v667zM150 350v-219q20 -32 60.5 -54t83.5 -22q72 0 114 52t42 134t-42 134.5t-114 52.5q-43 0 -83.5 -22.5t-60.5 -55.5z" />
    <glyph glyph-name="c" unicode="c" horiz-adv-x="495" 
d="M415 118l50 -46q-65 -84 -177 -84q-107 0 -174 72.5t-67 181.5t67 181t174 72q112 0 177 -84l-50 -46q-46 63 -123 63q-76 0 -121.5 -52t-45.5 -134t45.5 -134.5t121.5 -52.5t123 63z" />
    <glyph glyph-name="d" unicode="d" horiz-adv-x="575" 
d="M425 0v72q-62 -84 -163 -84q-96 0 -155.5 68.5t-59.5 184.5q0 115 59.5 184.5t155.5 69.5q100 0 163 -85v257h75v-667h-75zM425 131v219q-21 33 -61.5 55.5t-83.5 22.5q-71 0 -113 -52.5t-42 -134.5t42 -134t113 -52q44 0 84 22t61 54z" />
    <glyph glyph-name="e" unicode="e" horiz-adv-x="563" 
d="M449 111l36 -49q-74 -74 -192 -74q-108 0 -177 70.5t-69 183.5q0 106 68 179.5t170 73.5q107 0 169.5 -73.5t62.5 -185.5v-19h-391q5 -71 52 -119t122 -48q90 0 149 61zM126 272h317q-1 62 -42 111.5t-117 49.5q-72 0 -113.5 -49t-44.5 -112z" />
    <glyph glyph-name="f" unicode="f" horiz-adv-x="283" 
d="M96 417h-80v66h80v37q0 74 37.5 115.5t102.5 41.5q62 0 102 -37l-31 -49q-27 24 -60 24q-37 0 -56.5 -24.5t-19.5 -70.5v-37h98v-66h-98v-417h-75v417z" />
    <glyph glyph-name="g" unicode="g" horiz-adv-x="574" 
d="M499 483v-469q0 -111 -65 -160.5t-165 -49.5q-64 0 -109 15.5t-86 56.5l38 56q55 -66 157 -66q67 0 111 35.5t44 109.5v69q-27 -38 -70 -62t-92 -24q-96 0 -155.5 67.5t-59.5 182.5t59.5 183t155.5 68q99 0 162 -85v73h75zM424 139v211q-20 33 -60 55.5t-84 22.5
q-72 0 -113.5 -51t-41.5 -133q0 -81 42 -132.5t113 -51.5q43 0 83.5 23t60.5 56z" />
    <glyph glyph-name="h" unicode="h" horiz-adv-x="552" 
d="M402 0v318q0 60 -28 85t-81 25q-41 0 -80.5 -22t-62.5 -53v-353h-75v667h75v-254q28 33 75 57.5t98 24.5q154 0 154 -154v-341h-75z" />
    <glyph glyph-name="i" unicode="i" horiz-adv-x="225" 
d="M112 552q-20 0 -35 14.5t-15 35.5t15 36t35 15q21 0 36 -15t15 -36t-15 -35.5t-36 -14.5zM75 483h75v-483h-75v483z" />
    <glyph glyph-name="j" unicode="j" horiz-adv-x="225" 
d="M112 552q-20 0 -35 14.5t-15 35.5t15 36t35 15q21 0 36 -15t15 -36t-15 -35.5t-36 -14.5zM150 483v-530q0 -71 -37 -110t-106 -39q-59 0 -106 36l27 57q31 -31 69 -31q36 0 57 21.5t21 65.5v530h75z" />
    <glyph glyph-name="k" unicode="k" horiz-adv-x="514" 
d="M230 217l-80 -79v-138h-75v667h75v-441l254 257h95l-214 -219l215 -264h-96z" />
    <glyph glyph-name="l" unicode="l" horiz-adv-x="225" 
d="M75 667h75v-667h-75v667z" />
    <glyph glyph-name="m" unicode="m" horiz-adv-x="808" 
d="M658 0v328q0 100 -89 100q-36 0 -72 -22t-56 -52v-354h-75v328q0 100 -89 100q-35 0 -70.5 -22t-56.5 -53v-353h-75v483h75v-70q18 28 63 55t93 27q53 0 86 -25t44 -65q22 36 67 63t95 27q135 0 135 -146v-349h-75z" />
    <glyph glyph-name="n" unicode="n" horiz-adv-x="551" 
d="M401 0v316q0 61 -28 86.5t-80 25.5q-42 0 -81.5 -22t-61.5 -53v-353h-75v483h75v-70q28 33 75 57.5t97 24.5q154 0 154 -156v-339h-75z" />
    <glyph glyph-name="o" unicode="o" horiz-adv-x="572" 
d="M286 -12q-108 0 -173.5 73t-65.5 181t65.5 180.5t173.5 72.5t173.5 -72.5t65.5 -180.5t-65.5 -181t-173.5 -73zM286 55q74 0 117 54.5t43 132.5t-43 132t-117 54t-117.5 -54.5t-43.5 -131.5q0 -78 43.5 -132.5t117.5 -54.5z" />
    <glyph glyph-name="p" unicode="p" horiz-adv-x="572" 
d="M150 483v-72q27 38 70 61t93 23q96 0 155.5 -68.5t59.5 -184.5t-59.5 -185t-155.5 -69q-102 0 -163 85v-257h-75v667h75zM150 351v-218q20 -33 60.5 -55.5t83.5 -22.5q71 0 113 52.5t42 134.5t-42 134t-113 52q-43 0 -83.5 -22.5t-60.5 -54.5z" />
    <glyph glyph-name="q" unicode="q" horiz-adv-x="572" 
d="M421 -184v257q-61 -85 -162 -85q-96 0 -155.5 69t-59.5 185t59.5 184.5t155.5 68.5q50 0 93 -23t69 -61v72h75v-667h-75zM421 133v218q-19 32 -59.5 54.5t-84.5 22.5q-71 0 -112.5 -52t-41.5 -134t41.5 -134.5t112.5 -52.5q44 0 84.5 22.5t59.5 55.5z" />
    <glyph glyph-name="r" unicode="r" horiz-adv-x="330" 
d="M75 483h75v-78q67 88 161 88v-77q-14 3 -30 3q-34 0 -74 -24t-57 -53v-342h-75v483z" />
    <glyph glyph-name="s" unicode="s" horiz-adv-x="465" 
d="M405 425l-35 -52q-51 61 -144 61q-49 0 -78 -21.5t-29 -54.5q0 -29 31 -45.5t74.5 -26t87.5 -22.5t75 -45.5t31 -84.5q0 -64 -50 -105t-140 -41q-123 0 -195 76l39 54q25 -29 68.5 -49t90.5 -20q54 0 84 23t30 60q0 32 -31 50.5t-74.5 28t-87.5 22t-75 43t-31 80.5
q0 59 48.5 99t131.5 40q109 0 179 -70z" />
    <glyph glyph-name="t" unicode="t" horiz-adv-x="294" 
d="M265 75l22 -56q-33 -31 -90 -31q-53 0 -80 29t-27 84v316h-80v66h80v132h75v-132h98v-66h-98v-300q0 -28 12.5 -45t36.5 -17q33 0 51 20z" />
    <glyph glyph-name="u" unicode="u" horiz-adv-x="551" 
d="M401 0v68q-30 -34 -75.5 -57t-96.5 -23q-154 0 -154 154v341h75v-318q0 -60 27.5 -85t80.5 -25q42 0 81.5 21t61.5 52v355h75v-483h-75z" />
    <glyph glyph-name="v" unicode="v" horiz-adv-x="490" 
d="M3 483h81l161 -396l160 396h82l-201 -483h-82z" />
    <glyph glyph-name="w" unicode="w" horiz-adv-x="734" 
d="M367 388l-126 -388h-75l-154 483h78l118 -385l127 385h64l127 -385l118 385h78l-154 -483h-75z" />
    <glyph glyph-name="x" unicode="x" horiz-adv-x="486" 
d="M243 198l-145 -198h-86l185 248l-175 235h87l134 -184l134 184h87l-175 -235l186 -248h-87z" />
    <glyph glyph-name="y" unicode="y" horiz-adv-x="490" 
d="M48 -189l12 68q18 -8 41 -8q26 0 43 11t29 40l32 73l-202 488h81l161 -396l160 396h82l-242 -581q-40 -96 -142 -98q-30 0 -55 7z" />
    <glyph glyph-name="z" unicode="z" horiz-adv-x="472" 
d="M52 58l266 359h-266v66h364v-57l-268 -361h272v-65h-368v58z" />
    <glyph glyph-name="braceleft" unicode="{" horiz-adv-x="260" 
d="M243 -190h-61q-50 0 -87.5 37.5t-37.5 96.5v206q0 30 -13.5 49.5t-38.5 19.5v50q25 0 38.5 19.5t13.5 49.5v205q0 60 37.5 97.5t87.5 37.5h61v-55h-61q-27 0 -46.5 -22.5t-19.5 -57.5v-211q0 -68 -46 -88q46 -20 46 -88v-211q0 -34 19.5 -57t46.5 -23h61v-55z" />
    <glyph glyph-name="bar" unicode="|" horiz-adv-x="211" 
d="M78 687h55v-707h-55v707z" />
    <glyph glyph-name="braceright" unicode="}" horiz-adv-x="260" 
d="M17 -135h61q27 0 46.5 23t19.5 57v211q0 68 46 88q-46 20 -46 88v211q0 35 -19.5 57.5t-46.5 22.5h-61v55h61q50 0 87.5 -37.5t37.5 -97.5v-205q0 -30 13.5 -49.5t38.5 -19.5v-50q-25 0 -38.5 -19.5t-13.5 -49.5v-206q0 -59 -37.5 -96.5t-87.5 -37.5h-61v55z" />
    <glyph glyph-name="asciitilde" unicode="~" horiz-adv-x="503" 
d="M419 667l56 -7q-5 -51 -12.5 -89t-22.5 -74t-41 -55t-62 -19q-35 0 -58 19.5t-34.5 47.5t-21 56t-23.5 47.5t-35 19.5q-63 0 -82 -191l-56 7q5 50 13 88.5t23 74.5t41 55t61 19t58.5 -19.5t35 -48t20.5 -56.5t23 -47.5t35 -19.5q65 0 82 192z" />
    <glyph glyph-name="uni00A0" unicode="&#xa0;" horiz-adv-x="258" 
 />
    <glyph glyph-name="exclamdown" unicode="&#xa1;" horiz-adv-x="230" 
d="M60 438q0 22 16.5 38.5t38.5 16.5t38.5 -16.5t16.5 -38.5t-16 -38.5t-39 -16.5t-39 16.5t-16 38.5zM146 296l16 -480h-93l15 480h62z" />
    <glyph glyph-name="cent" unicode="&#xa2;" horiz-adv-x="495" 
d="M252 -100v91q-92 12 -148.5 81.5t-56.5 169.5q0 98 56.5 167.5t148.5 82.5v73h59v-71q94 -8 154 -83l-50 -46q-40 54 -104 62v-371q63 6 104 62l50 -46q-58 -75 -154 -83v-89h-59zM252 59v364q-59 -13 -93 -62.5t-34 -118.5q0 -70 34 -120t93 -63z" />
    <glyph glyph-name="sterling" unicode="&#xa3;" horiz-adv-x="518" 
d="M19 322h106q-28 32 -38.5 45.5t-24.5 46t-14 66.5q0 82 66 139.5t158 57.5q68 0 121 -29.5t81 -82.5l-67 -40q-14 34 -48.5 58t-78.5 24q-59 0 -101 -35t-42 -93q0 -26 9 -50t17.5 -37t28.5 -37.5t26 -32.5h150v-54h-122q7 -23 7 -43q0 -78 -76 -132q25 9 52 9
q33 0 76.5 -20.5t71.5 -20.5q31 0 57 12.5t38 27.5l36 -67q-49 -47 -135 -47q-47 0 -95 23t-84 23q-42 0 -118 -40l-30 62q64 29 98.5 68.5t34.5 84.5q0 30 -15 60h-145v54z" />
    <glyph glyph-name="currency" unicode="&#xa4;" horiz-adv-x="598" 
d="M523 64l-77 75q-62 -46 -147 -46q-86 0 -149 47l-75 -76l-47 45l77 77q-45 64 -45 147q0 86 46 147l-79 79l47 46l78 -79q62 46 147 46q86 0 146 -46l78 78l46 -46l-78 -78q47 -63 47 -147q0 -83 -46 -148l77 -76zM299 161q75 0 118.5 50.5t43.5 121.5t-43.5 120.5
t-118.5 49.5t-118.5 -50t-43.5 -120q0 -71 43.5 -121.5t118.5 -50.5z" />
    <glyph glyph-name="yen" unicode="&#xa5;" horiz-adv-x="626" 
d="M272 122h-250v53h250v107h-250v52h214l-227 333h97l207 -310l207 310h97l-227 -333h215v-52h-250v-107h250v-53h-250v-122h-83v122z" />
    <glyph glyph-name="brokenbar" unicode="&#xa6;" horiz-adv-x="211" 
d="M78 687h55v-316h-55v316zM78 296h55v-316h-55v316z" />
    <glyph glyph-name="section" unicode="&#xa7;" horiz-adv-x="468" 
d="M404 606l-34 -45q-50 60 -142 60q-48 0 -78.5 -22t-30.5 -58q0 -31 31 -48.5t74.5 -26.5t87.5 -22t75 -45t31 -84q0 -87 -92 -128q92 -35 92 -121q0 -69 -52 -108t-138 -39q-114 0 -194 78l38 49q60 -72 156 -72q53 0 85 23t32 64q0 34 -31 53.5t-74.5 30t-87.5 23
t-75 43t-31 79.5q0 50 32.5 82.5t82.5 45.5q-115 36 -115 123q0 58 48.5 97t131.5 39q117 0 178 -71zM344 305q0 39 -30.5 59t-82.5 33q-62 -16 -87 -40t-25 -59q0 -26 22 -44.5t41.5 -25t67.5 -18.5q7 -2 11 -3q83 36 83 98z" />
    <glyph glyph-name="dieresis" unicode="&#xa8;" horiz-adv-x="272" 
d="M79 604q0 -19 -13.5 -33t-32.5 -14t-33 13.5t-14 33.5q0 19 14 32.5t33 13.5t32.5 -13.5t13.5 -32.5zM286 604q0 -19 -14 -33t-33 -14t-33 14t-14 33t14 32.5t33 13.5t33 -13.5t14 -32.5z" />
    <glyph glyph-name="copyright" unicode="&#xa9;" horiz-adv-x="778" 
d="M734 334q0 -143 -101 -244t-244 -101t-244 101.5t-101 243.5q0 143 101 244t244 101t244 -101t101 -244zM703 334q0 130 -92 222t-222 92t-222 -92t-92 -222t92 -222t222 -92t222 92t92 222zM512 212l26 -25q-57 -66 -147 -66q-87 0 -147.5 61.5t-60.5 152.5t60.5 152
t147.5 61q90 0 146 -66l-25 -24q-19 26 -52.5 41.5t-68.5 15.5q-70 0 -120.5 -50.5t-50.5 -129.5q0 -77 51 -129t120 -52q36 0 68.5 16t52.5 42z" />
    <glyph glyph-name="guillemotleft" unicode="&#xab;" horiz-adv-x="439" 
d="M30 243l160 177h75l-160 -177l160 -180h-75zM174 243l160 177h75l-160 -177l160 -180h-75z" />
    <glyph glyph-name="logicalnot" unicode="&#xac;" horiz-adv-x="504" 
d="M415 211v193h-386v53h441v-246h-55z" />
    <glyph glyph-name="uni00AD" unicode="&#xad;" horiz-adv-x="300" 
d="M30 275h240v-66h-240v66z" />
    <glyph glyph-name="registered" unicode="&#xae;" horiz-adv-x="494" 
d="M459 465q0 -88 -62 -150t-150 -62t-150 62t-62 150t62 150t150 62q89 0 150.5 -61.5t61.5 -150.5zM430 465q0 76 -53.5 129.5t-129.5 53.5q-77 0 -130.5 -53.5t-53.5 -129.5t54 -130t130 -54t129.5 54t53.5 130zM242 439h-44v-96h-32v243h99q32 0 54.5 -20.5t22.5 -53.5
q0 -35 -22.5 -53.5t-39.5 -18.5l65 -97h-40zM198 468h67q16 0 30 13t14 31q0 19 -13.5 32.5t-30.5 13.5h-67v-90z" />
    <glyph glyph-name="macron" unicode="&#xaf;" horiz-adv-x="363" 
d="M0 620h363v-48h-363v48z" />
    <glyph glyph-name="degree" unicode="&#xb0;" horiz-adv-x="290" 
d="M267 555q0 -51 -36 -86.5t-87 -35.5q-50 0 -85.5 35.5t-35.5 86.5q0 50 35.5 86t85.5 36q51 0 87 -36t36 -86zM219 555q0 30 -22 52t-53 22q-30 0 -51 -22t-21 -52q0 -31 21 -52.5t51 -21.5q31 0 53 21.5t22 52.5z" />
    <glyph glyph-name="plusminus" unicode="&#xb1;" horiz-adv-x="499" 
d="M278 110h-57v214h-192v52h192v207h57v-207h192v-52h-192v-214zM29 52h441v-52h-441v52z" />
    <glyph glyph-name="twosuperior" unicode="&#xb2;" 
d="M50 421v45q124 88 176.5 140.5t52.5 98.5q0 36 -25 54.5t-60 18.5q-73 0 -112 -52l-33 38q50 63 147 63q60 0 101.5 -30.5t41.5 -87.5q0 -56 -50 -111.5t-151 -127.5h203v-49h-291z" />
    <glyph glyph-name="threesuperior" unicode="&#xb3;" 
d="M78 729l-31 36q55 62 145 62q64 0 104 -29t40 -78q0 -40 -27 -63.5t-62 -29.5q34 -3 65 -28t31 -69q0 -52 -41 -84t-110 -32q-103 0 -150 65l32 38q44 -54 116 -54q43 0 68 19t25 51q0 69 -104 69q-34 0 -40 -1v50q7 -1 39 -1q98 0 98 64q0 30 -25.5 47t-63.5 17
q-64 0 -109 -49z" />
    <glyph glyph-name="acute" unicode="&#xb4;" horiz-adv-x="226" 
d="M0 556l148 144h78l-169 -144h-57z" />
    <glyph glyph-name="uni00B5" unicode="&#xb5;" horiz-adv-x="565" 
d="M75 -184v667h75v-318q0 -112 110 -112q41 0 80 22t61 53v355h75v-370q0 -58 47 -58q11 0 19 2l6 -65q-22 -4 -40 -4q-88 0 -104 86q-27 -37 -68 -61.5t-85 -24.5q-75 0 -101 48v-220h-75z" />
    <glyph glyph-name="paragraph" unicode="&#xb6;" horiz-adv-x="449" 
d="M333 622h-89v-722h-45v423q-71 0 -121.5 50.5t-50.5 121.5t50.5 121.5t121.5 50.5h179v-767h-45v722z" />
    <glyph glyph-name="periodcentered" unicode="&#xb7;" horiz-adv-x="230" 
d="M170 244q0 -22 -16.5 -38t-38.5 -16t-38.5 16t-16.5 38t16 38.5t39 16.5t39 -16.5t16 -38.5z" />
    <glyph glyph-name="cedilla" unicode="&#xb8;" horiz-adv-x="205" 
d="M128 11l-26 -66q16 11 37 11q29 0 47.5 -18.5t18.5 -48.5q0 -36 -30 -58t-74 -22q-63 0 -101 30l19 38q35 -29 80 -29q25 0 43 11.5t18 30.5q0 35 -37 35q-23 0 -38 -17l-33 19l31 84h45z" />
    <glyph glyph-name="onesuperior" unicode="&#xb9;" horiz-adv-x="235" 
d="M115 743l-66 -69l-35 37l108 110h53v-400h-60v322z" />
    <glyph glyph-name="guillemotright" unicode="&#xbb;" horiz-adv-x="439" 
d="M30 63l160 180l-160 177h75l160 -177l-160 -180h-75zM174 63l160 180l-160 177h75l160 -177l-160 -180h-75z" />
    <glyph glyph-name="onequarter" unicode="&#xbc;" horiz-adv-x="770" 
d="M115 589l-66 -69l-35 37l108 110h53v-400h-60v322zM108 0l426 667h56l-427 -667h-55zM675 0h-59v100h-196v44l172 256h83v-251h58v-49h-58v-100zM480 149h136v198z" />
    <glyph glyph-name="onehalf" unicode="&#xbd;" horiz-adv-x="807" 
d="M115 589l-66 -69l-35 37l108 110h53v-400h-60v322zM108 0l426 667h56l-427 -667h-55zM468 0v45q124 88 176.5 140.5t52.5 98.5q0 36 -25 54.5t-60 18.5q-73 0 -112 -52l-33 38q49 63 147 63q60 0 101.5 -30.5t41.5 -87.5q0 -56 -50 -111.5t-151 -127.5h203v-49h-291z" />
    <glyph glyph-name="threequarters" unicode="&#xbe;" horiz-adv-x="878" 
d="M78 575l-31 36q55 62 145 62q64 0 104 -29t40 -78q0 -40 -27 -63.5t-62 -29.5q34 -3 65 -28t31 -69q0 -52 -41 -84t-110 -32q-103 0 -150 65l32 38q44 -54 116 -54q43 0 68 19t25 51q0 69 -104 69q-34 0 -40 -1v50q7 -1 39 -1q98 0 98 64q0 30 -25.5 47t-63.5 17
q-64 0 -109 -49zM216 0l426 667h56l-427 -667h-55zM784 0h-59v100h-196v44l172 256h83v-251h58v-49h-58v-100zM589 149h136v198z" />
    <glyph glyph-name="questiondown" unicode="&#xbf;" horiz-adv-x="394" 
d="M238 493q22 0 38.5 -16.5t16.5 -39.5q0 -22 -16.5 -38t-38.5 -16t-38.5 16t-16.5 38q0 23 16.5 39.5t38.5 16.5zM198 269l60 27q39 -35 39 -82q0 -35 -18.5 -63t-45 -47.5t-53 -37.5t-45 -42.5t-18.5 -53.5q0 -39 30.5 -65.5t86.5 -26.5q99 0 160 81l49 -53
q-78 -102 -216 -102q-89 0 -142.5 44.5t-53.5 110.5q0 42 20 75.5t48 54.5t56.5 40t48.5 42t20 50q0 28 -26 48z" />
    <glyph glyph-name="multiply" unicode="&#xd7;" horiz-adv-x="499" 
d="M101 148l-37 37l148 149l-148 148l37 38l148 -149l149 149l37 -38l-148 -148l148 -149l-37 -37l-149 149z" />
    <glyph glyph-name="divide" unicode="&#xf7;" horiz-adv-x="511" 
d="M302 526q0 -19 -14 -32.5t-33 -13.5t-32 13.5t-13 32.5t13 32.5t32 13.5q20 0 33.5 -13.5t13.5 -32.5zM29 363h453v-52h-453v52zM302 144q0 -19 -14 -32.5t-33 -13.5t-32 13.5t-13 32.5t13 32.5t32 13.5t33 -13.5t14 -32.5z" />
    <glyph glyph-name="uni02BC" unicode="&#x2bc;" horiz-adv-x="230" 
d="M94 450l-37 31q24 16 43 42.5t22 50.5q-4 -2 -14 -2q-21 0 -34.5 14.5t-13.5 36.5t15.5 38t37.5 16q26 0 44.5 -20.5t18.5 -55.5q0 -44 -23 -84.5t-59 -66.5z" />
    <glyph glyph-name="circumflex" unicode="&#x2c6;" horiz-adv-x="265" 
d="M131 662l-80 -106h-51l95 144h72l98 -144h-51z" />
    <glyph glyph-name="caron" unicode="&#x2c7;" horiz-adv-x="265" 
d="M0 700h51l83 -106l80 106h51l-95 -144h-72z" />
    <glyph glyph-name="uni02C9" unicode="&#x2c9;" horiz-adv-x="363" 
d="M0 639h363v-48h-363v48z" />
    <glyph glyph-name="uni02CB" unicode="&#x2cb;" horiz-adv-x="226" 
d="M0 700h78l148 -144h-57z" />
    <glyph glyph-name="breve" unicode="&#x2d8;" horiz-adv-x="351" 
d="M314 658l37 -32q-65 -88 -175 -88q-109 0 -176 88l37 32q52 -72 139 -72q88 0 138 72z" />
    <glyph glyph-name="dotaccent" unicode="&#x2d9;" horiz-adv-x="111" 
d="M56 555q-19 0 -33 14t-14 33t14 33t33 14t32.5 -13.5t13.5 -33.5t-13.5 -33.5t-32.5 -13.5z" />
    <glyph glyph-name="ring" unicode="&#x2da;" horiz-adv-x="196" 
d="M98 543q-40 0 -69 28.5t-29 69.5t29 70t69 29t69 -29t29 -70t-29 -69.5t-69 -28.5zM98 582q24 0 41 17.5t17 41.5q0 25 -16.5 42t-41.5 17q-24 0 -41 -17t-17 -42q0 -24 17 -41.5t41 -17.5z" />
    <glyph glyph-name="ogonek" unicode="&#x2db;" horiz-adv-x="178" 
d="M141 -105l37 -21q-26 -60 -89 -60q-38 0 -63.5 22t-25.5 65q0 37 24 69t64 53l33 -23q-76 -38 -76 -97q0 -50 44 -50q38 0 52 42z" />
    <glyph glyph-name="tilde" unicode="&#x2dc;" horiz-adv-x="313" 
d="M268 688h45q0 -60 -25.5 -97t-71.5 -37q-25 0 -43.5 14.5t-27.5 31.5t-22.5 31.5t-29.5 14.5q-21 0 -34.5 -21.5t-13.5 -64.5h-45q0 60 25.5 97t71.5 37q24 0 42.5 -14.5t28 -31.5t23 -31.5t29.5 -14.5q21 0 34.5 21.5t13.5 64.5z" />
    <glyph glyph-name="hungarumlaut" unicode="&#x2dd;" horiz-adv-x="305" 
d="M0 556l94 144h69l-115 -144h-48zM142 556l94 144h69l-115 -144h-48z" />
    <glyph glyph-name="hookabovecomb" unicode="&#x309;" horiz-adv-x="0" 
d="M48 726l-33 9q18 55 73 55q31 0 51.5 -17.5t20.5 -51.5q0 -28 -19 -54h-40q23 23 23 52q0 39 -36 39q-29 0 -40 -32z" />
    <glyph glyph-name="commaaccentcomb" unicode="&#x326;" horiz-adv-x="0" 
d="M96 -272l-33 26q23 15 39.5 39.5t18.5 46.5q-2 -2 -11 -2q-18 0 -30 12.5t-12 31.5q0 20 13.5 33.5t32.5 13.5q22 0 37.5 -18t15.5 -49q0 -39 -20 -75t-51 -59z" />
    <glyph glyph-name="uni0401" unicode="&#x401;" horiz-adv-x="569" 
d="M239 771q0 -19 -13.5 -33t-32.5 -14t-33 14t-14 33t14 32.5t33 13.5t32.5 -13.5t13.5 -32.5zM446 771q0 -19 -14 -33t-33 -14t-33 14t-14 33t14 32.5t33 13.5t33 -13.5t14 -32.5zM78 667h437v-74h-354v-215h347v-74h-347v-230h354v-74h-437v667z" />
    <glyph glyph-name="uni0402" unicode="&#x402;" horiz-adv-x="769" 
d="M501 -12v74q62 0 98 37t36 101v8q0 72 -39.5 109.5t-115.5 37.5q-83 0 -154 -23v-332h-83v593h-211v74h506v-74h-212v-187q84 23 161 23q113 0 172 -61t59 -160v-8q0 -104 -61 -158t-156 -54z" />
    <glyph glyph-name="uni0403" unicode="&#x403;" horiz-adv-x="550" 
d="M228 723l148 144h78l-169 -144h-57zM78 667h437v-74h-354v-593h-83v667z" />
    <glyph glyph-name="uni0404" unicode="&#x404;" horiz-adv-x="676" 
d="M577 159l71 -39q-97 -132 -254 -132q-146 0 -244.5 96.5t-98.5 248.5t98.5 248.5t244.5 96.5q160 0 253 -132l-70 -39q-29 43 -78 70t-105 27q-99 0 -169.5 -62.5t-84.5 -163.5h365v-74h-367q10 -107 81.5 -174.5t174.5 -67.5q56 0 105 26.5t78 70.5z" />
    <glyph glyph-name="uni0405" unicode="&#x405;" horiz-adv-x="586" 
d="M525 584l-50 -61q-73 80 -193 80q-60 0 -98.5 -29.5t-38.5 -76.5q0 -35 29.5 -58t73 -34t95 -27.5t95 -35t73 -59.5t29.5 -99q0 -82 -60.5 -139t-185.5 -57q-162 0 -256 106l49 63q85 -95 210 -95q81 0 119 34.5t38 80.5q0 35 -22 59t-56.5 37.5t-77 24.5t-84.5 24.5
t-76.5 32.5t-56.5 54t-22 83q0 82 65 133.5t164 51.5q149 0 237 -93z" />
    <glyph glyph-name="uni0406" unicode="&#x406;" horiz-adv-x="239" 
d="M78 667h83v-667h-83v667z" />
    <glyph glyph-name="uni0407" unicode="&#x407;" horiz-adv-x="239" 
d="M62 771q0 -19 -13.5 -33t-32.5 -14q-20 0 -33.5 14t-13.5 33t14 32.5t33 13.5t32.5 -13.5t13.5 -32.5zM269 771q0 -19 -14 -33t-33 -14t-33 14t-14 33t14 32.5t33 13.5t33 -13.5t14 -32.5zM78 667h83v-667h-83v667z" />
    <glyph glyph-name="uni0408" unicode="&#x408;" horiz-adv-x="475" 
d="M397 667v-466q0 -104 -59 -158.5t-153 -54.5q-108 0 -174 77l43 63q55 -66 126 -66q61 0 97.5 38.5t36.5 101.5v465h83z" />
    <glyph glyph-name="uni0409" unicode="&#x409;" horiz-adv-x="1060" 
d="M32 -12v74q43 0 70 20t48 79.5t35 170.5l41 335h408v-265h185q96 0 152.5 -58t56.5 -143t-56 -143t-153 -58h-268v593h-251l-33 -267q-13 -107 -34.5 -176t-53 -103.5t-65 -46.5t-82.5 -12zM634 74h175q59 0 96 35.5t37 91.5t-37 91.5t-96 35.5h-175v-254z" />
    <glyph glyph-name="uni040A" unicode="&#x40a;" horiz-adv-x="1060" 
d="M161 667v-287h390v287h83v-287h197q91 0 144 -55t53 -135q0 -81 -53 -135.5t-144 -54.5h-280v306h-390v-306h-83v667h83zM634 74h187q54 0 87.5 32t33.5 84q0 51 -33.5 83.5t-87.5 32.5h-187v-232z" />
    <glyph glyph-name="uni040B" unicode="&#x40b;" horiz-adv-x="785" 
d="M635 0v201q0 154 -155 154q-83 0 -154 -23v-332h-83v593h-211v74h506v-74h-212v-187q84 23 161 23q114 0 172.5 -61.5t58.5 -167.5v-200h-83z" />
    <glyph glyph-name="uni040C" unicode="&#x40c;" horiz-adv-x="601" 
d="M247 723l148 144h78l-169 -144h-57zM228 300l-67 -76v-224h-83v667h83v-345l295 345h104l-278 -317l302 -350h-103z" />
    <glyph glyph-name="uni040E" unicode="&#x40e;" horiz-adv-x="626" 
d="M452 825l37 -32q-65 -88 -175 -88q-109 0 -176 88l37 32q52 -72 139 -72q88 0 138 72zM617 667l-291 -549q-35 -66 -75 -98t-106 -32q-41 0 -76 15t-54 38l35 66q43 -45 91 -45q38 0 60.5 20t51.5 75l12 23l-256 487h95l209 -413l209 413h95z" />
    <glyph glyph-name="uni040F" unicode="&#x40f;" horiz-adv-x="712" 
d="M161 667v-593h390v593h83v-667h-236v-127h-83v127h-237v667h83z" />
    <glyph glyph-name="uni0410" unicode="&#x410;" horiz-adv-x="658" 
d="M495 148h-332l-59 -148h-95l268 667h103l269 -667h-95zM187 222h283l-141 359z" />
    <glyph glyph-name="uni0411" unicode="&#x411;" horiz-adv-x="587" 
d="M511 593h-350v-191h185q96 0 152.5 -58t56.5 -143t-56 -143t-153 -58h-268v667h433v-74zM161 74h175q59 0 96 35.5t37 91.5t-37 91.5t-96 35.5h-175v-254z" />
    <glyph glyph-name="uni0412" unicode="&#x412;" horiz-adv-x="629" 
d="M78 667h297q86 0 136.5 -47t50.5 -123q0 -60 -34 -101.5t-83 -51.5q53 -8 91.5 -56t38.5 -108q0 -81 -51.5 -130.5t-141.5 -49.5h-304v667zM161 378h200q55 0 85 30t30 77t-30.5 77.5t-84.5 30.5h-200v-215zM161 74h204q58 0 91 31t33 84q0 49 -32.5 82t-91.5 33h-204
v-230z" />
    <glyph glyph-name="uni0413" unicode="&#x413;" horiz-adv-x="550" 
d="M78 667h437v-74h-354v-593h-83v667z" />
    <glyph glyph-name="uni0414" unicode="&#x414;" horiz-adv-x="723" 
d="M32 -123v190q44 3 70 21t47.5 76t35.5 168l41 335h408v-593h61v-197h-83v123h-497v-123h-83zM300 593l-33 -267q-23 -193 -102 -252h386v519h-251z" />
    <glyph glyph-name="uni0415" unicode="&#x415;" horiz-adv-x="569" 
d="M78 667h437v-74h-354v-215h347v-74h-347v-230h354v-74h-437v667z" />
    <glyph glyph-name="uni0416" unicode="&#x416;" horiz-adv-x="909" 
d="M319 350l-278 317h104l268 -314v314h83v-314l269 314h104l-279 -317l303 -350h-104l-253 300l-40 -46v-254h-83v254l-40 46l-253 -300h-103z" />
    <glyph glyph-name="uni0417" unicode="&#x417;" horiz-adv-x="584" 
d="M86 522l-46 52q40 46 102.5 74.5t138.5 28.5q102 0 170.5 -48t68.5 -130q0 -66 -44.5 -105.5t-99.5 -49.5q55 -5 104.5 -48t49.5 -116q0 -84 -69 -138t-181 -54q-84 0 -151 31t-100 79l49 53q30 -40 84.5 -64.5t115.5 -24.5q78 0 123 33.5t45 91.5q0 60 -46.5 89
t-126.5 29h-136v74h136q71 0 116.5 27.5t45.5 82.5q0 54 -45.5 84t-114.5 30q-113 0 -189 -81z" />
    <glyph glyph-name="uni0418" unicode="&#x418;" horiz-adv-x="708" 
d="M78 667h83v-521l384 521h85v-667h-83v532l-389 -532h-80v667z" />
    <glyph glyph-name="uni0419" unicode="&#x419;" horiz-adv-x="708" 
d="M492 825l37 -32q-65 -88 -175 -88q-109 0 -176 88l37 32q52 -72 139 -72q88 0 138 72zM78 667h83v-521l384 521h85v-667h-83v532l-389 -532h-80v667z" />
    <glyph glyph-name="uni041A" unicode="&#x41a;" horiz-adv-x="601" 
d="M228 300l-67 -76v-224h-83v667h83v-345l295 345h104l-278 -317l302 -350h-103z" />
    <glyph glyph-name="uni041B" unicode="&#x41b;" horiz-adv-x="712" 
d="M32 -12v74q43 0 70 20t48 79.5t35 170.5l41 335h408v-667h-83v593h-251l-33 -267q-13 -107 -34.5 -176t-53 -103.5t-65 -46.5t-82.5 -12z" />
    <glyph glyph-name="uni041C" unicode="&#x41c;" horiz-adv-x="809" 
d="M648 549l-227 -549h-34l-226 549v-549h-83v667h119l207 -502l208 502h119v-667h-83v549z" />
    <glyph glyph-name="uni041D" unicode="&#x41d;" horiz-adv-x="712" 
d="M551 306h-390v-306h-83v667h83v-287h390v287h83v-667h-83v306z" />
    <glyph glyph-name="uni041E" unicode="&#x41e;" horiz-adv-x="765" 
d="M382 -12q-147 0 -239 98t-92 247t92 247t239 98q146 0 238.5 -98t92.5 -247t-92.5 -247t-238.5 -98zM382 62q110 0 177.5 76.5t67.5 194.5q0 119 -67.5 195t-177.5 76q-111 0 -178 -76t-67 -195q0 -118 67 -194.5t178 -76.5z" />
    <glyph glyph-name="uni041F" unicode="&#x41f;" horiz-adv-x="712" 
d="M551 593h-390v-593h-83v667h556v-667h-83v593z" />
    <glyph glyph-name="uni0420" unicode="&#x420;" horiz-adv-x="587" 
d="M78 667h268q97 0 153 -58t56 -143t-56.5 -143t-152.5 -58h-185v-265h-83v667zM161 339h175q59 0 96 35.5t37 91.5t-37 91.5t-96 35.5h-175v-254z" />
    <glyph glyph-name="uni0421" unicode="&#x421;" horiz-adv-x="676" 
d="M577 159l71 -39q-97 -132 -254 -132q-146 0 -244.5 96.5t-98.5 248.5t98.5 248.5t244.5 96.5q160 0 253 -132l-70 -39q-29 43 -78 70t-105 27q-110 0 -183.5 -76.5t-73.5 -194.5t73.5 -194.5t183.5 -76.5q56 0 105 26.5t78 70.5z" />
    <glyph glyph-name="uni0422" unicode="&#x422;" horiz-adv-x="570" 
d="M243 593h-211v74h506v-74h-212v-593h-83v593z" />
    <glyph glyph-name="uni0423" unicode="&#x423;" horiz-adv-x="626" 
d="M617 667l-291 -549q-35 -66 -75 -98t-106 -32q-41 0 -76 15t-54 38l35 66q43 -45 91 -45q38 0 60.5 20t51.5 75l12 23l-256 487h95l209 -413l209 413h95z" />
    <glyph glyph-name="uni0424" unicode="&#x424;" horiz-adv-x="806" 
d="M361 0v65q-144 10 -227 82t-83 186q0 113 83 185t227 82v67h83v-67q143 -10 227 -82.5t84 -184.5q0 -114 -83.5 -186t-227.5 -82v-65h-83zM361 140v386q-105 -9 -164.5 -61t-59.5 -132t59.5 -132t164.5 -61zM444 526v-386q105 9 165 61t60 132t-60 132t-165 61z" />
    <glyph glyph-name="uni0425" unicode="&#x425;" horiz-adv-x="652" 
d="M326 284l-213 -284h-101l260 342l-245 325h101l198 -267l197 267h101l-244 -324l259 -343h-100z" />
    <glyph glyph-name="uni0426" unicode="&#x426;" horiz-adv-x="723" 
d="M78 0v667h83v-593h390v593h83v-593h61v-197h-83v123h-534z" />
    <glyph glyph-name="uni0427" unicode="&#x427;" horiz-adv-x="611" 
d="M141 667v-174q0 -154 155 -154q83 0 154 23v305h83v-667h-83v288q-84 -23 -161 -23q-114 0 -172.5 61.5t-58.5 167.5v173h83z" />
    <glyph glyph-name="uni0428" unicode="&#x428;" horiz-adv-x="958" 
d="M880 0h-802v667h83v-593h277v593h83v-593h276v593h83v-667z" />
    <glyph glyph-name="uni0429" unicode="&#x429;" horiz-adv-x="975" 
d="M886 74h60v-197h-83v123h-780v667h83v-593h277v593h83v-593h277v593h83v-593z" />
    <glyph glyph-name="uni042A" unicode="&#x42a;" horiz-adv-x="752" 
d="M243 593h-211v74h294v-265h185q96 0 152.5 -58t56.5 -143t-56 -143t-153 -58h-268v593zM326 74h175q59 0 96 35.5t37 91.5t-37 91.5t-96 35.5h-175v-254z" />
    <glyph glyph-name="uni042B" unicode="&#x42b;" horiz-adv-x="788" 
d="M161 402h185q96 0 152.5 -58t56.5 -143t-56 -143t-153 -58h-268v667h83v-265zM627 667h83v-667h-83v667zM161 74h175q59 0 96 35.5t37 91.5t-37 91.5t-96 35.5h-175v-254z" />
    <glyph glyph-name="uni042C" unicode="&#x42c;" horiz-adv-x="587" 
d="M161 402h185q96 0 152.5 -58t56.5 -143t-56 -143t-153 -58h-268v667h83v-265zM161 74h175q59 0 96 35.5t37 91.5t-37 91.5t-96 35.5h-175v-254z" />
    <glyph glyph-name="uni042D" unicode="&#x42d;" horiz-adv-x="676" 
d="M99 507l-70 39q93 132 253 132q146 0 244.5 -96.5t98.5 -248.5t-98.5 -248.5t-244.5 -96.5q-157 0 -254 132l71 39q29 -44 78 -70.5t105 -26.5q103 0 174.5 67.5t80.5 174.5h-366v74h364q-14 101 -84 163.5t-169 62.5q-56 0 -105 -27t-78 -70z" />
    <glyph glyph-name="uni042E" unicode="&#x42e;" horiz-adv-x="992" 
d="M161 380h119q15 132 105 215t224 83q146 0 239 -98t93 -247t-93 -247t-239 -98q-140 0 -231 89.5t-99 228.5h-118v-306h-83v667h83v-287zM609 62q110 0 178 76.5t68 194.5t-68 194.5t-178 76.5q-111 0 -178 -76t-67 -195q0 -118 67 -194.5t178 -76.5z" />
    <glyph glyph-name="uni042F" unicode="&#x42f;" horiz-adv-x="608" 
d="M47 0l180 272q-73 6 -123.5 57t-50.5 137q0 91 58.5 146t151.5 55h268v-667h-83v265h-134l-170 -265h-97zM448 593h-176q-59 0 -96 -35.5t-37 -91.5t37.5 -92t95.5 -36h176v255z" />
    <glyph glyph-name="uni0430" unicode="&#x430;" horiz-adv-x="527" 
d="M377 0v55q-61 -67 -160 -67q-67 0 -118 43t-51 117q0 76 50.5 117.5t118.5 41.5q103 0 160 -66v87q0 48 -34 75t-88 27q-85 0 -148 -67l-35 52q77 80 193 80q83 0 135 -40t52 -123v-332h-75zM377 102v91q-43 60 -133 60q-52 0 -85.5 -29.5t-33.5 -76.5q0 -46 33.5 -75.5
t85.5 -29.5q90 0 133 60z" />
    <glyph glyph-name="uni0431" unicode="&#x431;" horiz-adv-x="577" 
d="M436 667h73q0 -28 -17 -48.5t-48.5 -32.5t-59 -18.5t-65.5 -11.5q-100 -14 -144.5 -55t-58.5 -109q66 103 182 103q100 0 163 -73t63 -179q0 -108 -65 -181.5t-173 -73.5q-109 0 -174 77t-65 199q0 172 62 254.5t191 99.5q77 12 106.5 23t29.5 26zM286 55q74 0 117 54.5
t43 133.5q0 77 -43 131t-117 54t-117.5 -54t-43.5 -131q0 -79 43.5 -133.5t117.5 -54.5z" />
    <glyph glyph-name="uni0432" unicode="&#x432;" horiz-adv-x="554" 
d="M75 483h266q63 0 99.5 -34t36.5 -90q0 -41 -22.5 -70.5t-55.5 -39.5q37 -9 62.5 -43t25.5 -75q0 -59 -37.5 -95t-103.5 -36h-271v483zM150 281h178q34 0 53 18.5t19 48.5q0 32 -19 50.5t-53 18.5h-178v-136zM150 66h181q36 0 57 20t21 54q0 31 -21 53t-57 22h-181v-149z
" />
    <glyph glyph-name="uni0433" unicode="&#x433;" horiz-adv-x="436" 
d="M150 417v-417h-75v483h338v-66h-263z" />
    <glyph glyph-name="uni0434" unicode="&#x434;" horiz-adv-x="561" 
d="M18 -123v185q37 7 58 44.5t34 138.5l31 238h336v-417h56v-189h-75v123h-365v-123h-75zM207 417l-22 -181q-17 -127 -70 -170h287v351h-195z" />
    <glyph glyph-name="uni0435" unicode="&#x435;" horiz-adv-x="563" 
d="M449 111l36 -49q-74 -74 -192 -74q-108 0 -177 70.5t-69 183.5q0 106 68 179.5t170 73.5q107 0 169.5 -73.5t62.5 -185.5v-19h-391q5 -71 52 -119t122 -48q90 0 149 61zM126 272h317q-1 62 -42 111.5t-117 49.5q-72 0 -113.5 -49t-44.5 -112z" />
    <glyph glyph-name="uni0436" unicode="&#x436;" horiz-adv-x="711" 
d="M229 264l-214 219h95l208 -213v213h75v-212l208 212h95l-215 -219l216 -264h-96l-174 217l-34 -34v-183h-75v183l-34 34l-174 -217h-96z" />
    <glyph glyph-name="uni0437" unicode="&#x437;" horiz-adv-x="514" 
d="M76 371l-39 46q75 77 198 77q99 1 160.5 -33.5t61.5 -95.5q0 -50 -40.5 -81t-89.5 -37q51 -4 95.5 -34t44.5 -84q0 -62 -59.5 -101.5t-161.5 -39.5q-139 0 -218 79l37 48q68 -65 181 -65q65 0 103.5 23t38.5 61q0 80 -152 80h-108v61h108q63 0 103 20.5t40 60.5
q0 34 -40 55.5t-101 21.5q-101 0 -162 -62z" />
    <glyph glyph-name="uni0438" unicode="&#x438;" horiz-adv-x="552" 
d="M75 483h75v-369l253 369h74v-483h-75v376l-255 -376h-72v483z" />
    <glyph glyph-name="uni0439" unicode="&#x439;" horiz-adv-x="552" 
d="M414 658l37 -32q-65 -88 -175 -88q-109 0 -176 88l37 32q52 -72 139 -72q88 0 138 72zM75 483h75v-369l253 369h74v-483h-75v376l-255 -376h-72v483z" />
    <glyph glyph-name="uni043A" unicode="&#x43a;" horiz-adv-x="514" 
d="M230 217l-80 -79v-138h-75v483h75v-257l254 257h95l-214 -219l215 -264h-96z" />
    <glyph glyph-name="uni043B" unicode="&#x43b;" horiz-adv-x="552" 
d="M18 -12v62q34 0 56 45t36 150l31 238h336v-483h-75v417h-195l-22 -181q-16 -133 -56 -190.5t-111 -57.5z" />
    <glyph glyph-name="uni043C" unicode="&#x43c;" horiz-adv-x="643" 
d="M493 379l-157 -379h-28l-158 379v-379h-75v483h99l148 -358l146 358h100v-483h-75v379z" />
    <glyph glyph-name="uni043D" unicode="&#x43d;" horiz-adv-x="552" 
d="M75 483h75v-201h252v201h75v-483h-75v216h-252v-216h-75v483z" />
    <glyph glyph-name="uni043E" unicode="&#x43e;" horiz-adv-x="572" 
d="M286 -12q-108 0 -173.5 73t-65.5 181t65.5 180.5t173.5 72.5t173.5 -72.5t65.5 -180.5t-65.5 -181t-173.5 -73zM286 55q74 0 117 54.5t43 132.5t-43 132t-117 54t-117.5 -54.5t-43.5 -131.5q0 -78 43.5 -132.5t117.5 -54.5z" />
    <glyph glyph-name="uni043F" unicode="&#x43f;" horiz-adv-x="552" 
d="M402 417h-252v-417h-75v483h402v-483h-75v417z" />
    <glyph glyph-name="uni0440" unicode="&#x440;" horiz-adv-x="572" 
d="M150 483v-72q27 38 70 61t93 23q96 0 155.5 -68.5t59.5 -184.5t-59.5 -185t-155.5 -69q-102 0 -163 85v-257h-75v667h75zM150 351v-218q20 -33 60.5 -55.5t83.5 -22.5q71 0 113 52.5t42 134.5t-42 134t-113 52q-43 0 -83.5 -22.5t-60.5 -54.5z" />
    <glyph glyph-name="uni0441" unicode="&#x441;" horiz-adv-x="495" 
d="M415 118l50 -46q-65 -84 -177 -84q-107 0 -174 72.5t-67 181.5t67 181t174 72q112 0 177 -84l-50 -46q-46 63 -123 63q-76 0 -121.5 -52t-45.5 -134t45.5 -134.5t121.5 -52.5t123 63z" />
    <glyph glyph-name="uni0442" unicode="&#x442;" horiz-adv-x="402" 
d="M163 417h-140v66h356v-66h-141v-417h-75v417z" />
    <glyph glyph-name="uni0443" unicode="&#x443;" horiz-adv-x="490" 
d="M48 -189l12 68q18 -8 41 -8q26 0 43 11t29 40l32 73l-202 488h81l161 -396l160 396h82l-242 -581q-40 -96 -142 -98q-30 0 -55 7z" />
    <glyph glyph-name="uni0444" unicode="&#x444;" horiz-adv-x="798" 
d="M362 -184v256q-22 -38 -57 -61t-75 -23q-78 0 -126 68.5t-48 184.5t48.5 185t125.5 69q82 0 132 -85v257h75v-256q22 38 56.5 61t74.5 23q78 0 126 -68.5t48 -184.5t-48.5 -185t-125.5 -69q-82 0 -131 85v-257h-75zM362 132v218q-16 33 -47 55.5t-64 22.5
q-55 0 -87 -52.5t-32 -134.5t32 -134t87 -52q34 0 65 22t46 55zM437 351v-218q16 -33 46.5 -55.5t63.5 -22.5q55 0 87 52.5t32 134.5t-32 134t-87 52q-33 0 -64 -22.5t-46 -54.5z" />
    <glyph glyph-name="uni0445" unicode="&#x445;" horiz-adv-x="486" 
d="M243 198l-145 -198h-86l185 248l-175 235h87l134 -184l134 184h87l-175 -235l186 -248h-87z" />
    <glyph glyph-name="uni0446" unicode="&#x446;" horiz-adv-x="561" 
d="M75 0v483h75v-417h252v417h75v-417h56v-189h-75v123h-383z" />
    <glyph glyph-name="uni0447" unicode="&#x447;" horiz-adv-x="541" 
d="M140 483v-136q0 -65 30 -90t93 -25q78 0 128 26v225h75v-483h-75v197q-64 -32 -147 -32q-94 0 -136.5 38t-42.5 121v159h75z" />
    <glyph glyph-name="uni0448" unicode="&#x448;" horiz-adv-x="783" 
d="M708 0h-633v483h75v-417h204v417h75v-417h204v417h75v-483z" />
    <glyph glyph-name="uni0449" unicode="&#x449;" horiz-adv-x="798" 
d="M708 66h62v-189h-75v123h-620v483h75v-417h204v417h75v-417h204v417h75v-417z" />
    <glyph glyph-name="uni044A" unicode="&#x44a;" horiz-adv-x="610" 
d="M163 417h-140v66h215v-187h181q72 0 112 -42.5t40 -105.5t-40.5 -105.5t-111.5 -42.5h-256v417zM238 66h173q40 0 61.5 22.5t21.5 59.5t-21.5 59.5t-61.5 22.5h-173v-164z" />
    <glyph glyph-name="uni044B" unicode="&#x44b;" horiz-adv-x="712" 
d="M150 296h181q72 0 112 -42.5t40 -105.5t-40.5 -105.5t-111.5 -42.5h-256v483h75v-187zM562 483h75v-483h-75v483zM150 66h173q40 0 61.5 22.5t21.5 59.5t-21.5 59.5t-61.5 22.5h-173v-164z" />
    <glyph glyph-name="uni044C" unicode="&#x44c;" horiz-adv-x="522" 
d="M150 296h181q72 0 112 -42.5t40 -105.5t-40.5 -105.5t-111.5 -42.5h-256v483h75v-187zM150 66h173q40 0 61.5 22.5t21.5 59.5t-21.5 59.5t-61.5 22.5h-173v-164z" />
    <glyph glyph-name="uni044D" unicode="&#x44d;" horiz-adv-x="495" 
d="M78 367l-48 44q65 84 177 84q107 0 174.5 -72t67.5 -181t-67.5 -181.5t-174.5 -72.5q-112 0 -177 84l48 44q49 -66 126 -66q69 0 112.5 44t51.5 118h-243v65h242q-9 71 -52.5 113.5t-110.5 42.5q-78 0 -126 -66z" />
    <glyph glyph-name="uni044E" unicode="&#x44e;" horiz-adv-x="767" 
d="M150 282h94q12 93 75.5 153t160.5 60q108 0 174 -72.5t66 -180.5t-66 -181t-174 -73q-100 0 -164.5 64.5t-72.5 163.5h-93v-216h-75v483h75v-201zM480 55q75 0 118 54.5t43 132.5t-43 132t-118 54q-73 0 -116.5 -54.5t-43.5 -131.5q0 -78 43 -132.5t117 -54.5z" />
    <glyph glyph-name="uni044F" unicode="&#x44f;" horiz-adv-x="547" 
d="M59 0l129 190q-55 7 -89.5 46t-34.5 99q0 64 41 106t112 42h255v-483h-75v187h-132l-118 -187h-88zM397 417h-172q-39 0 -61.5 -22.5t-22.5 -59.5t22 -59.5t62 -22.5h172v164z" />
    <glyph glyph-name="uni0451" unicode="&#x451;" horiz-adv-x="563" 
d="M228 604q0 -19 -13.5 -33t-32.5 -14q-20 0 -33.5 13.5t-13.5 33.5q0 19 14 32.5t33 13.5t32.5 -13.5t13.5 -32.5zM435 604q0 -19 -14 -33t-33 -14t-33 14t-14 33t14 32.5t33 13.5t33 -13.5t14 -32.5zM449 111l36 -49q-74 -74 -192 -74q-108 0 -177 70.5t-69 183.5
q0 106 68 179.5t170 73.5q107 0 169.5 -73.5t62.5 -185.5v-19h-391q5 -71 52 -119t122 -48q90 0 149 61zM126 272h317q-1 62 -42 111.5t-117 49.5q-72 0 -113.5 -49t-44.5 -112z" />
    <glyph glyph-name="uni0452" unicode="&#x452;" horiz-adv-x="554" 
d="M152 535v-122q28 33 75 57.5t98 24.5q154 0 154 -154v-388q0 -71 -37 -110t-107 -39q-60 0 -105 36l26 57q31 -31 69 -31q36 0 57.5 21.5t21.5 65.5v365q0 60 -28 85t-81 25q-41 0 -80.5 -22t-62.5 -53v-353h-75v535h-68v48h68v84h75v-84h157v-48h-157z" />
    <glyph glyph-name="uni0453" unicode="&#x453;" horiz-adv-x="436" 
d="M188 556l148 144h78l-169 -144h-57zM150 417v-417h-75v483h338v-66h-263z" />
    <glyph glyph-name="uni0454" unicode="&#x454;" horiz-adv-x="495" 
d="M417 116l48 -44q-65 -84 -177 -84q-107 0 -174 72.5t-67 181.5t67 181t174 72q112 0 177 -84l-48 -44q-48 66 -125 66q-68 0 -112 -42.5t-53 -113.5h243v-65h-244q8 -74 52 -118t114 -44q76 0 125 66z" />
    <glyph glyph-name="uni0455" unicode="&#x455;" horiz-adv-x="465" 
d="M405 425l-35 -52q-51 61 -144 61q-49 0 -78 -21.5t-29 -54.5q0 -29 31 -45.5t74.5 -26t87.5 -22.5t75 -45.5t31 -84.5q0 -64 -50 -105t-140 -41q-123 0 -195 76l39 54q25 -29 68.5 -49t90.5 -20q54 0 84 23t30 60q0 32 -31 50.5t-74.5 28t-87.5 22t-75 43t-31 80.5
q0 59 48.5 99t131.5 40q109 0 179 -70z" />
    <glyph glyph-name="uni0456" unicode="&#x456;" horiz-adv-x="225" 
d="M112 552q-20 0 -35 14.5t-15 35.5t15 36t35 15q21 0 36 -15t15 -36t-15 -35.5t-36 -14.5zM75 483h75v-483h-75v483z" />
    <glyph glyph-name="uni0457" unicode="&#x457;" horiz-adv-x="225" 
d="M56 604q0 -19 -13.5 -33t-32.5 -14q-20 0 -33.5 13.5t-13.5 33.5q0 19 14 32.5t33 13.5t32.5 -13.5t13.5 -32.5zM263 604q0 -19 -14 -33t-33 -14t-33 14t-14 33t14 32.5t33 13.5t33 -13.5t14 -32.5zM75 483h75v-483h-75v483z" />
    <glyph glyph-name="uni0458" unicode="&#x458;" horiz-adv-x="225" 
d="M112 552q-20 0 -35 14.5t-15 35.5t15 36t35 15q21 0 36 -15t15 -36t-15 -35.5t-36 -14.5zM150 483v-530q0 -71 -37 -110t-106 -39q-59 0 -106 36l27 57q31 -31 69 -31q36 0 57 21.5t21 65.5v530h75z" />
    <glyph glyph-name="uni0459" unicode="&#x459;" horiz-adv-x="849" 
d="M18 -12v62q34 0 56 45t36 150l31 238h336v-187h180q72 0 112.5 -42.5t40.5 -105.5t-40.5 -105.5t-112.5 -42.5h-255v417h-195l-22 -181q-16 -133 -56 -190.5t-111 -57.5zM477 66h173q40 0 61.5 22.5t21.5 59.5q0 36 -22 59t-61 23h-173v-164z" />
    <glyph glyph-name="uni045A" unicode="&#x45a;" horiz-adv-x="849" 
d="M75 483h75v-201h252v201h75v-201h188q68 0 106.5 -40.5t38.5 -101.5q0 -59 -38.5 -99.5t-106.5 -40.5h-263v216h-252v-216h-75v483zM477 66h180q36 0 56 20.5t20 53.5q0 34 -20 55t-56 21h-180v-150z" />
    <glyph glyph-name="uni045B" unicode="&#x45b;" horiz-adv-x="554" 
d="M152 535v-122q28 33 75 57.5t98 24.5q154 0 154 -154v-341h-75v318q0 60 -28 85t-81 25q-41 0 -80.5 -22t-62.5 -53v-353h-75v535h-68v48h68v84h75v-84h156v-48h-156z" />
    <glyph glyph-name="uni045C" unicode="&#x45c;" horiz-adv-x="514" 
d="M202 556l148 144h78l-169 -144h-57zM230 217l-80 -79v-138h-75v483h75v-257l254 257h95l-214 -219l215 -264h-96z" />
    <glyph glyph-name="uni045E" unicode="&#x45e;" horiz-adv-x="490" 
d="M384 658l37 -32q-65 -88 -175 -88q-109 0 -176 88l37 32q52 -72 139 -72q88 0 138 72zM48 -189l12 68q18 -8 41 -8q26 0 43 11t29 40l32 73l-202 488h81l161 -396l160 396h82l-242 -581q-40 -96 -142 -98q-30 0 -55 7z" />
    <glyph glyph-name="uni045F" unicode="&#x45f;" horiz-adv-x="552" 
d="M75 0v483h75v-417h252v417h75v-483h-163v-126h-75v126h-164z" />
    <glyph glyph-name="uni0490" unicode="&#x490;" horiz-adv-x="550" 
d="M78 0v667h354v123h83v-197h-354v-593h-83z" />
    <glyph glyph-name="uni0491" unicode="&#x491;" horiz-adv-x="436" 
d="M75 0v483h263v126h75v-192h-263v-417h-75z" />
    <glyph glyph-name="uni2009" unicode="&#x2009;" horiz-adv-x="51" 
 />
    <glyph glyph-name="endash" unicode="&#x2013;" horiz-adv-x="593" 
d="M30 275h533v-66h-533v66z" />
    <glyph glyph-name="emdash" unicode="&#x2014;" horiz-adv-x="833" 
d="M30 275h773v-66h-773v66z" />
    <glyph glyph-name="uni2015" unicode="&#x2015;" horiz-adv-x="593" 
d="M30 275h533v-66h-533v66z" />
    <glyph glyph-name="quoteleft" unicode="&#x2018;" horiz-adv-x="230" 
d="M128 677l37 -30q-24 -16 -42.5 -42.5t-21.5 -50.5q1 0 6 0.5t7 0.5q21 0 35 -14.5t14 -36.5t-15.5 -37.5t-37.5 -15.5q-26 0 -44.5 20.5t-18.5 55.5q0 44 22.5 84t58.5 66z" />
    <glyph glyph-name="quoteright" unicode="&#x2019;" horiz-adv-x="230" 
d="M94 450l-37 31q24 16 43 42.5t22 50.5q-4 -2 -14 -2q-21 0 -34.5 14.5t-13.5 36.5t15.5 38t37.5 16q26 0 44.5 -20.5t18.5 -55.5q0 -44 -23 -84.5t-59 -66.5z" />
    <glyph glyph-name="quotesinglbase" unicode="&#x201a;" horiz-adv-x="230" 
d="M94 -127l-37 31q25 16 43.5 42.5t21.5 50.5q-4 -2 -14 -2q-21 0 -34.5 14.5t-13.5 36.5t15.5 38t37.5 16q26 0 44.5 -20.5t18.5 -55.5q0 -44 -23 -84.5t-59 -66.5z" />
    <glyph glyph-name="quotereversed" unicode="&#x201b;" horiz-adv-x="230" 
d="M172 481l-37 -31q-36 26 -58.5 66.5t-22.5 84.5q0 35 18 55.5t44 20.5q22 0 38 -16t16 -38t-14 -36.5t-35 -14.5q-9 0 -13 2q3 -24 21.5 -50.5t42.5 -42.5z" />
    <glyph glyph-name="quotedblleft" unicode="&#x201c;" horiz-adv-x="390" 
d="M135 677l37 -30q-24 -16 -43 -42.5t-21 -50.5h5q5 1 8 1q21 0 34.5 -14.5t13.5 -36.5t-15.5 -37.5t-37.5 -15.5q-26 0 -44 20.5t-18 55.5q0 44 22.5 84t58.5 66zM295 677l37 -30q-24 -16 -42.5 -42.5t-21.5 -50.5h5q5 1 8 1q21 0 35 -14.5t14 -36.5t-16 -37.5t-38 -15.5
q-26 0 -44 20.5t-18 55.5q0 44 22.5 84t58.5 66z" />
    <glyph glyph-name="quotedblright" unicode="&#x201d;" horiz-adv-x="390" 
d="M94 450l-37 31q24 16 43 42.5t22 50.5q-4 -2 -14 -2q-21 0 -34.5 14.5t-13.5 36.5t15.5 38t37.5 16q26 0 44.5 -20.5t18.5 -55.5q0 -44 -23 -84.5t-59 -66.5zM255 450l-37 31q24 16 42.5 42.5t21.5 50.5q-4 -2 -13 -2q-21 0 -35 14.5t-14 36.5t15.5 38t37.5 16
q26 0 44.5 -20.5t18.5 -55.5q0 -44 -23 -84.5t-58 -66.5z" />
    <glyph glyph-name="quotedblbase" unicode="&#x201e;" horiz-adv-x="390" 
d="M94 -127l-37 31q25 16 43.5 42.5t21.5 50.5q-4 -2 -14 -2q-21 0 -34.5 14.5t-13.5 36.5t15.5 38t37.5 16q26 0 44.5 -20.5t18.5 -55.5q0 -44 -23 -84.5t-59 -66.5zM255 -127l-37 31q24 16 42.5 42.5t21.5 50.5q-4 -2 -13 -2q-21 0 -35 14.5t-14 36.5t15.5 38t37.5 16
q26 0 44.5 -20.5t18.5 -55.5q0 -44 -23 -84.5t-58 -66.5z" />
    <glyph glyph-name="dagger" unicode="&#x2020;" horiz-adv-x="263" 
d="M155 327h-48l5 208l-89 -4v43l89 -3l-5 106h48l-4 -106l89 3v-43l-89 4z" />
    <glyph glyph-name="daggerdbl" unicode="&#x2021;" horiz-adv-x="263" 
d="M151 535v-213l89 4v-43l-89 3l4 -106h-48l4 106l-88 -3v43l88 -4v213l-88 -4v43l88 -3l-4 106h48l-4 -106l89 3v-43z" />
    <glyph glyph-name="bullet" unicode="&#x2022;" horiz-adv-x="358" 
d="M288 242q0 -44 -32 -75.5t-76 -31.5t-76 31.5t-32 75.5t32 76t76 32t76 -32t32 -76z" />
    <glyph glyph-name="ellipsis" unicode="&#x2026;" horiz-adv-x="690" 
d="M169 45q0 -22 -16.5 -38.5t-38.5 -16.5t-38 16.5t-16 38.5q0 23 16 39t38 16t38.5 -16t16.5 -39zM400 45q0 -22 -17 -38.5t-39 -16.5t-38 16.5t-16 38.5q0 23 16 39t38 16q23 0 39.5 -16.5t16.5 -38.5zM630 45q0 -22 -16.5 -38.5t-38.5 -16.5t-38.5 16.5t-16.5 38.5
q0 23 16 39t39 16t39 -16t16 -39z" />
    <glyph glyph-name="perthousand" unicode="&#x2030;" horiz-adv-x="1083" 
d="M353 511q0 -70 -45.5 -116.5t-116.5 -46.5t-115.5 46.5t-44.5 116.5q0 71 45 118.5t115 47.5q71 0 116.5 -47.5t45.5 -118.5zM128 0l426 667h55l-427 -667h-54zM293 511q0 51 -28.5 85t-73.5 34q-44 0 -72 -34t-28 -85q0 -50 28 -83t72 -33q45 0 73.5 33t28.5 83z
M700 151q0 -70 -45 -116.5t-116 -46.5t-115.5 46.5t-44.5 116.5q0 71 45 118.5t115 47.5q71 0 116 -47.5t45 -118.5zM1052 151q0 -70 -45 -116.5t-116 -46.5t-115.5 46.5t-44.5 116.5q0 71 45 118.5t115 47.5q71 0 116 -47.5t45 -118.5zM641 151q0 51 -28.5 85t-73.5 34
t-73 -34t-28 -85q0 -50 28 -83t73 -33t73.5 33t28.5 83zM993 151q0 51 -28.5 85t-73.5 34t-72.5 -33.5t-27.5 -85.5q0 -50 28 -83t72 -33q45 0 73.5 33t28.5 83z" />
    <glyph glyph-name="guilsinglleft" unicode="&#x2039;" horiz-adv-x="295" 
d="M30 243l160 177h75l-160 -177l160 -180h-75z" />
    <glyph glyph-name="guilsinglright" unicode="&#x203a;" horiz-adv-x="295" 
d="M30 63l160 180l-160 177h75l160 -177l-160 -180h-75z" />
    <glyph glyph-name="uni203E" unicode="&#x203e;" horiz-adv-x="363" 
d="M0 620h363v-48h-363v48z" />
    <glyph glyph-name="fraction" unicode="&#x2044;" horiz-adv-x="138" 
d="M-172 0l426 667h56l-427 -667h-55z" />
    <glyph glyph-name="zerosuperior" unicode="&#x2070;" 
d="M355 621q0 -83 -41 -145t-120 -62q-80 0 -120.5 61.5t-40.5 145.5t40.5 145t120.5 61q79 0 120 -61.5t41 -144.5zM293 621q0 68 -24 112.5t-75 44.5q-52 0 -76 -44.5t-24 -112.5t24 -113t76 -45q51 0 75 45t24 113z" />
    <glyph glyph-name="foursuperior" unicode="&#x2074;" 
d="M294 421h-59v100h-196v44l172 256h83v-251h58v-49h-58v-100zM99 570h136v198z" />
    <glyph glyph-name="fivesuperior" unicode="&#x2075;" 
d="M116 772v-134q38 36 96 36q55 0 93.5 -33.5t38.5 -93.5t-43 -96.5t-109 -36.5q-99 0 -148 65l35 39q42 -55 113 -55q41 0 66.5 23.5t25.5 58.5q0 37 -24.5 60t-65.5 23q-56 0 -95 -39l-43 15v217h261v-49h-201z" />
    <glyph glyph-name="sixsuperior" unicode="&#x2076;" 
d="M329 781l-29 -42q-36 39 -88 39q-56 0 -85 -43t-29 -103v-17q18 24 49 42.5t66 18.5q59 0 98 -34.5t39 -95.5q0 -56 -40.5 -94t-106.5 -38q-84 0 -124.5 57.5t-40.5 148.5q0 90 45 148.5t129 58.5q69 0 117 -46zM290 544q0 41 -26 62.5t-66 21.5q-28 0 -54.5 -15
t-43.5 -41q3 -45 28 -77t72 -32q41 0 65.5 25t24.5 56z" />
    <glyph glyph-name="sevensuperior" unicode="&#x2077;" horiz-adv-x="362" 
d="M90 421l166 351h-223v49h290v-42l-166 -358h-67z" />
    <glyph glyph-name="eightsuperior" unicode="&#x2078;" 
d="M347 523q0 -52 -44.5 -80.5t-108.5 -28.5q-65 0 -109 28.5t-44 80.5q0 38 29 66t72 38q-41 10 -67.5 34t-26.5 61q0 52 43.5 78.5t102.5 26.5t102.5 -26.5t43.5 -78.5q0 -37 -26.5 -61t-67.5 -34q43 -10 72 -38t29 -66zM280 715q0 30 -24.5 47t-61.5 17q-38 0 -62.5 -17
t-24.5 -47q0 -51 87 -68q86 16 86 68zM287 528q0 35 -32 54t-61 23q-29 -4 -61.5 -23t-32.5 -54q0 -31 27 -49t67 -18q39 0 66 18.5t27 48.5z" />
    <glyph glyph-name="ninesuperior" unicode="&#x2079;" 
d="M60 460l28 42q36 -39 88 -39q55 0 84 42.5t30 104.5v16q-17 -24 -48 -42.5t-66 -18.5q-59 0 -98.5 34t-39.5 96q0 55 41 93.5t107 38.5q83 0 123.5 -58t40.5 -149q0 -89 -45 -147.5t-129 -58.5q-72 0 -116 46zM98 697q0 -41 26 -62.5t66 -21.5q63 0 98 56q-4 44 -28 76.5
t-71 32.5q-42 0 -66.5 -25t-24.5 -56z" />
    <glyph glyph-name="parenleftsuperior" unicode="&#x207d;" horiz-adv-x="161" 
d="M151 372l-35 -16q-90 111 -90 265q0 153 90 265l35 -16q-63 -124 -63 -249q0 -126 63 -249z" />
    <glyph glyph-name="parenrightsuperior" unicode="&#x207e;" horiz-adv-x="161" 
d="M23 870l34 16q43 -53 67 -123t24 -142q0 -152 -91 -265l-34 16q63 123 63 249t-63 249z" />
    <glyph glyph-name="zeroinferior" unicode="&#x2080;" 
d="M355 54q0 -83 -41 -145t-120 -62q-80 0 -120.5 61.5t-40.5 145.5t40.5 145t120.5 61q79 0 120 -61.5t41 -144.5zM293 54q0 68 -24 112.5t-75 44.5q-52 0 -76 -44.5t-24 -112.5t24 -113t76 -45q51 0 75 45t24 113z" />
    <glyph glyph-name="oneinferior" unicode="&#x2081;" horiz-adv-x="235" 
d="M115 176l-66 -69l-35 37l108 110h53v-400h-60v322z" />
    <glyph glyph-name="twoinferior" unicode="&#x2082;" 
d="M50 -146v45q124 88 176.5 140.5t52.5 98.5q0 36 -25 54.5t-60 18.5q-73 0 -112 -52l-33 38q50 63 147 63q60 0 101.5 -30.5t41.5 -87.5q0 -56 -50 -111.5t-151 -127.5h203v-49h-291z" />
    <glyph glyph-name="threeinferior" unicode="&#x2083;" 
d="M78 162l-31 36q55 62 145 62q64 0 104 -29t40 -78q0 -40 -27 -63.5t-62 -29.5q34 -3 65 -28t31 -69q0 -52 -41 -84t-110 -32q-103 0 -150 65l32 38q44 -54 116 -54q43 0 68 19t25 51q0 69 -104 69q-34 0 -40 -1v50q7 -1 39 -1q98 0 98 64q0 30 -25.5 47t-63.5 17
q-64 0 -109 -49z" />
    <glyph glyph-name="fourinferior" unicode="&#x2084;" 
d="M294 -146h-59v100h-196v44l172 256h83v-251h58v-49h-58v-100zM99 3h136v198z" />
    <glyph glyph-name="fiveinferior" unicode="&#x2085;" 
d="M116 205v-134q38 36 96 36q55 0 93.5 -33.5t38.5 -93.5t-43 -96.5t-109 -36.5q-99 0 -148 65l35 39q42 -55 113 -55q41 0 66.5 23.5t25.5 58.5q0 37 -24.5 60t-65.5 23q-56 0 -95 -39l-43 15v217h261v-49h-201z" />
    <glyph glyph-name="sixinferior" unicode="&#x2086;" 
d="M329 214l-29 -42q-36 39 -88 39q-56 0 -85 -43t-29 -103v-17q18 24 49 42.5t66 18.5q59 0 98 -34.5t39 -95.5q0 -56 -40.5 -94t-106.5 -38q-84 0 -124.5 57.5t-40.5 148.5q0 90 45 148.5t129 58.5q69 0 117 -46zM290 -23q0 41 -26 62.5t-66 21.5q-28 0 -54.5 -15
t-43.5 -41q3 -45 28 -77t72 -32q41 0 65.5 25t24.5 56z" />
    <glyph glyph-name="seveninferior" unicode="&#x2087;" horiz-adv-x="362" 
d="M90 -146l166 351h-223v49h290v-42l-166 -358h-67z" />
    <glyph glyph-name="eightinferior" unicode="&#x2088;" 
d="M347 -44q0 -52 -44.5 -80.5t-108.5 -28.5q-65 0 -109 28.5t-44 80.5q0 38 29 66t72 38q-41 10 -67.5 34t-26.5 61q0 52 43.5 78.5t102.5 26.5t102.5 -26.5t43.5 -78.5q0 -37 -26.5 -61t-67.5 -34q43 -10 72 -38t29 -66zM280 148q0 30 -24.5 47t-61.5 17q-38 0 -62.5 -17
t-24.5 -47q0 -51 87 -68q86 16 86 68zM287 -39q0 35 -32 54t-61 23q-29 -4 -61.5 -23t-32.5 -54q0 -31 27 -49t67 -18q39 0 66 18.5t27 48.5z" />
    <glyph glyph-name="nineinferior" unicode="&#x2089;" 
d="M60 -107l28 42q36 -39 88 -39q55 0 84 42.5t30 104.5v16q-17 -24 -48 -42.5t-66 -18.5q-59 0 -98.5 34t-39.5 96q0 55 41 93.5t107 38.5q83 0 123.5 -58t40.5 -149q0 -89 -45 -147.5t-129 -58.5q-72 0 -116 46zM98 130q0 -41 26 -62.5t66 -21.5q63 0 98 56
q-4 44 -28 76.5t-71 32.5q-42 0 -66.5 -25t-24.5 -56z" />
    <glyph glyph-name="uni208D" unicode="&#x208d;" horiz-adv-x="161" 
d="M151 -195l-35 -16q-90 111 -90 265q0 153 90 265l35 -16q-63 -124 -63 -249q0 -126 63 -249z" />
    <glyph glyph-name="uni208E" unicode="&#x208e;" horiz-adv-x="161" 
d="M23 303l34 16q43 -53 67 -123t24 -142q0 -152 -91 -265l-34 16q63 123 63 249t-63 249z" />
    <glyph glyph-name="colonmonetary" unicode="&#x20a1;" horiz-adv-x="680" 
d="M581 159l71 -39q-97 -132 -254 -132q-4 0 -11.5 0.5t-10.5 0.5l-30 -89h-50l32 95q-45 8 -79 23l-39 -118h-50l47 141q-71 45 -111.5 121t-40.5 171q0 152 98.5 248.5t244.5 96.5q4 0 11 -0.5t11 -0.5l30 91h50l-32 -97q40 -9 76 -29l42 126h50l-51 -152q34 -26 66 -70
l-70 -39q-12 17 -23 28l-157 -473q55 1 103 27.5t77 69.5zM234 120l161 484q-110 -2 -182 -77.5t-72 -193.5q0 -136 93 -213zM444 599l-169 -507q35 -18 76 -26l168 501q-36 23 -75 32z" />
    <glyph glyph-name="frenchfranc" unicode="&#x20a3;" horiz-adv-x="561" 
d="M88 137h-78v48h78v482h437v-74h-354v-215h347v-74h-347v-119h202v-48h-202v-137h-83v137z" />
    <glyph glyph-name="lira" unicode="&#x20a4;" horiz-adv-x="518" 
d="M19 374h64q-35 49 -35 106q0 82 66 139.5t158 57.5q68 0 121 -29.5t81 -82.5l-67 -40q-14 34 -48.5 58t-78.5 24q-59 0 -101 -35t-42 -93q0 -53 39 -105h192v-46h-155q29 -38 36 -70h119v-46h-116q-5 -69 -75 -119q25 9 52 9q33 0 76.5 -20.5t71.5 -20.5q31 0 57 12.5
t38 27.5l36 -67q-49 -47 -135 -47q-47 0 -95 23t-84 23q-42 0 -118 -40l-30 62q64 29 98.5 68.5t34.5 84.5v4h-160v46h150q-9 22 -49 70h-101v46z" />
    <glyph glyph-name="uni20A6" unicode="&#x20a6;" horiz-adv-x="729" 
d="M383 241h-212v-241h-83v241h-78v48h78v95h-78v48h78v235h85l173 -235h211v235h83v-235h78v-48h-78v-95h78v-48h-78v-241h-80zM244 432l-73 100v-100h73zM348 289l-69 95h-108v-95h177zM557 289v95h-176l70 -95h106zM557 241h-70l70 -95v95z" />
    <glyph glyph-name="peseta" unicode="&#x20a7;" horiz-adv-x="640" 
d="M635 439h-72q-9 -76 -64 -125t-143 -49h-185v-265h-83v439h-78v52h78v176h268q89 0 144 -50t63 -126h72v-52zM171 491h306q-8 46 -43.5 74t-87.5 28h-175v-102zM171 339h175q51 0 86.5 27.5t43.5 72.5h-305v-100z" />
    <glyph glyph-name="uni20A8" unicode="&#x20a8;" horiz-adv-x="1019" 
d="M294 265h-133v-265h-83v667h268q93 0 151 -55t58 -146q0 -86 -50 -137t-123 -57l180 -272h-98zM161 338h175q59 0 96 36t37 92t-37 91.5t-96 35.5h-175v-255zM959 425l-35 -52q-51 61 -144 61q-49 0 -78 -21.5t-29 -54.5q0 -29 31 -45.5t74.5 -26t87.5 -22.5t75 -45.5
t31 -84.5q0 -64 -50 -105t-140 -41q-123 0 -195 76l39 54q25 -29 68.5 -49t90.5 -20q54 0 84 23t30 60q0 32 -31 50.5t-74.5 28t-87.5 22t-75 43t-31 80.5q0 59 48.5 99t131.5 40q109 0 179 -70z" />
    <glyph glyph-name="uni20A9" unicode="&#x20a9;" horiz-adv-x="883" 
d="M522 241h-162l-66 -241h-90l-69 241h-115v48h102l-27 95h-75v48h61l-67 235h92l62 -235h174l65 235h69l64 -235h173l63 235h92l-68 -235h63v-48h-76l-27 -95h103v-48h-117l-68 -241h-90zM470 432l-29 106l-29 -106h58zM303 289l26 95h-148l25 -95h97zM509 289l-26 95h-84
l-26 -95h136zM676 289l25 95h-148l27 -95h96zM290 241h-71l35 -130zM663 241h-70l36 -130z" />
    <glyph glyph-name="uni20AA" unicode="&#x20aa;" horiz-adv-x="820" 
d="M75 550h248q225 0 225 -212v-176h-73v170q0 152 -152 152h-175v-484h-73v550zM745 550v-338q0 -212 -224 -212h-248v387h73v-321h175q151 0 151 151v333h73z" />
    <glyph glyph-name="dong" unicode="&#x20ab;" horiz-adv-x="579" 
d="M425 0v72q-62 -84 -163 -84q-96 0 -155.5 68.5t-59.5 184.5q0 115 59.5 184.5t155.5 69.5q100 0 163 -85v125h-157v48h157v84h75v-84h68v-48h-68v-535h-75zM425 131v219q-21 33 -61.5 55.5t-83.5 22.5q-71 0 -113 -52.5t-42 -134.5t42 -134t113 -52q44 0 84 22t61 54z
M120 -95h363v-48h-363v48z" />
    <glyph glyph-name="Euro" unicode="&#x20ac;" horiz-adv-x="695" 
d="M598 159l71 -39q-97 -132 -254 -132q-121 0 -211.5 67.5t-119.5 181.5h-53v52h43q-2 28 -2 44t2 46h-43v52h53q30 112 120.5 179.5t210.5 67.5q160 0 253 -132l-70 -39q-29 43 -78 70t-105 27q-85 0 -150 -47t-92 -126h303v-52h-315q-3 -23 -3 -46t3 -44h315v-52h-303
q26 -80 91.5 -127.5t150.5 -47.5q56 0 105 26.5t78 70.5z" />
    <glyph glyph-name="uni2113" unicode="&#x2113;" horiz-adv-x="475" 
d="M150 281v-170q0 -28 12.5 -45t36.5 -17q28 0 51 21l22 -51q-31 -31 -90 -31q-49 0 -78 27.5t-29 85.5v404q0 73 53.5 122.5t137.5 49.5q75 0 125.5 -36t50.5 -90q0 -45 -31.5 -81t-89.5 -75zM150 355l142 96q41 28 59.5 49t18.5 48q0 32 -31.5 52.5t-73.5 20.5
q-49 0 -82 -32t-33 -85v-149z" />
    <glyph glyph-name="uni2116" unicode="&#x2116;" horiz-adv-x="1113" 
d="M910 350q-73 0 -117.5 47.5t-44.5 117.5t44.5 117.5t117.5 47.5q74 0 118.5 -47.5t44.5 -117.5t-44.5 -117.5t-118.5 -47.5zM161 532v-532h-83v667h85l384 -521v521h83v-667h-80zM910 398q48 0 76 33t28 84q0 50 -28 82.5t-76 32.5q-47 0 -74.5 -32.5t-27.5 -82.5
q0 -51 27.5 -84t74.5 -33z" />
    <glyph glyph-name="uni2117" unicode="&#x2117;" horiz-adv-x="778" 
d="M734 334q0 -142 -101 -243.5t-244 -101.5t-244 101.5t-101 243.5t101 243.5t244 101.5t244 -101.5t101 -243.5zM703 334q0 129 -92.5 221.5t-221.5 92.5q-130 0 -222 -92.5t-92 -221.5q0 -130 92 -222t222 -92q129 0 221.5 92t92.5 222zM275 536h149q52 0 88.5 -31.5
t36.5 -85.5q0 -52 -36 -83t-89 -31h-112v-174h-37v405zM312 339h112q38 0 63 22t25 58q0 37 -25 59.5t-63 22.5h-112v-162z" />
    <glyph glyph-name="uni2120" unicode="&#x2120;" horiz-adv-x="476" 
d="M181 641l-18 -19q-22 27 -63 27q-21 0 -34.5 -10t-13.5 -26q0 -17 21 -27t47 -14.5t47 -20.5t21 -45q0 -31 -22.5 -49t-64.5 -18q-55 0 -86 36l18 21q28 -32 67 -32q55 0 55 39q0 19 -21.5 30t-46.5 15t-46.5 19.5t-21.5 42.5q0 28 22.5 45.5t57.5 17.5q55 0 82 -32z
M411 629l-75 -182h-8l-75 182v-182h-28v220h43l64 -160l64 160h43v-220h-28v182z" />
    <glyph glyph-name="trademark" unicode="&#x2122;" horiz-adv-x="454" 
d="M107 447h-28v194h-62v26h152v-26h-62v-194zM391 629l-75 -182h-8l-75 182v-182h-28v220h43l64 -160l64 160h43v-220h-28v182z" />
    <glyph glyph-name="Ohm" unicode="&#x2126;" horiz-adv-x="765" 
d="M69 74h135q-153 92 -153 274q0 145 92 237.5t239 92.5q148 0 239.5 -92.5t91.5 -237.5q0 -182 -151 -274h134v-74h-240v74q71 18 121 87t50 173q0 115 -65 192t-180 77t-180 -77t-65 -192q0 -104 50.5 -173t121.5 -87v-74h-240v74z" />
    <glyph glyph-name="estimated" unicode="&#x212e;" horiz-adv-x="842" 
d="M811 324h-632q-5 0 -5 -5v-190q0 -14 9 -23q98 -103 240 -103q151 0 250 115h57q-54 -63 -135 -99.5t-174 -36.5q-161 0 -275.5 103t-114.5 248t114.5 248t275.5 103t275.5 -103t114.5 -248v-9zM668 349v191q0 14 -10 24q-97 99 -235 99q-140 0 -239 -102
q-10 -10 -10 -24v-188q0 -6 5 -6h485q4 0 4 6z" />
    <glyph glyph-name="uni2153" unicode="&#x2153;" horiz-adv-x="807" 
d="M115 589l-66 -69l-35 37l108 110h53v-400h-60v322zM108 0l426 667h56l-427 -667h-55zM496 308l-31 36q55 62 145 62q64 0 104 -29t40 -78q0 -40 -27 -63.5t-62 -29.5q34 -3 65 -28t31 -69q0 -52 -41 -84t-110 -32q-103 0 -150 65l32 38q44 -54 116 -54q43 0 68 19t25 51
q0 69 -104 69q-34 0 -40 -1v50q7 -1 39 -1q98 0 98 64q0 30 -25.5 47t-63.5 17q-64 0 -109 -49z" />
    <glyph glyph-name="uni2154" unicode="&#x2154;" horiz-adv-x="915" 
d="M50 267v45q124 88 176.5 140.5t52.5 98.5q0 36 -25 54.5t-60 18.5q-73 0 -112 -52l-33 38q50 63 147 63q60 0 101.5 -30.5t41.5 -87.5q0 -56 -50 -111.5t-151 -127.5h203v-49h-291zM216 0l426 667h56l-427 -667h-55zM605 308l-31 36q55 62 145 62q64 0 104 -29t40 -78
q0 -40 -27 -63.5t-62 -29.5q34 -3 65 -28t31 -69q0 -52 -41 -84t-110 -32q-103 0 -150 65l32 38q44 -54 116 -54q43 0 68 19t25 51q0 69 -104 69q-34 0 -40 -1v50q7 -1 39 -1q98 0 98 64q0 30 -25.5 47t-63.5 17q-64 0 -109 -49z" />
    <glyph glyph-name="oneeighth" unicode="&#x215b;" horiz-adv-x="807" 
d="M115 589l-66 -69l-35 37l108 110h53v-400h-60v322zM108 0l426 667h56l-427 -667h-55zM765 102q0 -52 -44.5 -80.5t-108.5 -28.5q-65 0 -109 28.5t-44 80.5q0 38 29 66t72 38q-41 10 -67.5 34t-26.5 61q0 52 43.5 78.5t102.5 26.5t102.5 -26.5t43.5 -78.5q0 -37 -26.5 -61
t-67.5 -34q43 -10 72 -38t29 -66zM698 294q0 30 -24.5 47t-61.5 17q-38 0 -62.5 -17t-24.5 -47q0 -51 87 -68q86 16 86 68zM705 107q0 35 -32 54t-61 23q-29 -4 -61.5 -23t-32.5 -54q0 -31 27 -49t67 -18q39 0 66 18.5t27 48.5z" />
    <glyph glyph-name="threeeighths" unicode="&#x215c;" horiz-adv-x="915" 
d="M78 575l-31 36q55 62 145 62q64 0 104 -29t40 -78q0 -40 -27 -63.5t-62 -29.5q34 -3 65 -28t31 -69q0 -52 -41 -84t-110 -32q-103 0 -150 65l32 38q44 -54 116 -54q43 0 68 19t25 51q0 69 -104 69q-34 0 -40 -1v50q7 -1 39 -1q98 0 98 64q0 30 -25.5 47t-63.5 17
q-64 0 -109 -49zM216 0l426 667h56l-427 -667h-55zM874 102q0 -52 -44.5 -80.5t-108.5 -28.5q-65 0 -109 28.5t-44 80.5q0 38 29 66t72 38q-41 10 -67.5 34t-26.5 61q0 52 43.5 78.5t102.5 26.5t102.5 -26.5t43.5 -78.5q0 -37 -26.5 -61t-67.5 -34q43 -10 72 -38t29 -66z
M807 294q0 30 -24.5 47t-61.5 17q-38 0 -62.5 -17t-24.5 -47q0 -51 87 -68q86 16 86 68zM814 107q0 35 -32 54t-61 23q-29 -4 -61.5 -23t-32.5 -54q0 -31 27 -49t67 -18q39 0 66 18.5t27 48.5z" />
    <glyph glyph-name="fiveeighths" unicode="&#x215d;" horiz-adv-x="912" 
d="M116 618v-134q38 36 96 36q55 0 93.5 -33.5t38.5 -93.5t-43 -96.5t-109 -36.5q-99 0 -148 65l35 39q42 -55 113 -55q41 0 66.5 23.5t25.5 58.5q0 37 -24.5 60t-65.5 23q-56 0 -95 -39l-43 15v217h261v-49h-201zM213 0l426 667h56l-427 -667h-55zM871 102
q0 -52 -44.5 -80.5t-108.5 -28.5q-65 0 -109 28.5t-44 80.5q0 38 29 66t72 38q-41 10 -67.5 34t-26.5 61q0 52 43.5 78.5t102.5 26.5t102.5 -26.5t43.5 -78.5q0 -37 -26.5 -61t-67.5 -34q43 -10 72 -38t29 -66zM804 294q0 30 -24.5 47t-61.5 17q-38 0 -62.5 -17t-24.5 -47
q0 -51 87 -68q86 16 86 68zM811 107q0 35 -32 54t-61 23q-29 -4 -61.5 -23t-32.5 -54q0 -31 27 -49t67 -18q39 0 66 18.5t27 48.5z" />
    <glyph glyph-name="seveneighths" unicode="&#x215e;" horiz-adv-x="830" 
d="M90 267l166 351h-223v49h290v-42l-166 -358h-67zM131 0l426 667h56l-427 -667h-55zM789 102q0 -52 -44.5 -80.5t-108.5 -28.5q-65 0 -109 28.5t-44 80.5q0 38 29 66t72 38q-41 10 -67.5 34t-26.5 61q0 52 43.5 78.5t102.5 26.5t102.5 -26.5t43.5 -78.5q0 -37 -26.5 -61
t-67.5 -34q43 -10 72 -38t29 -66zM722 294q0 30 -24.5 47t-61.5 17q-38 0 -62.5 -17t-24.5 -47q0 -51 87 -68q86 16 86 68zM729 107q0 35 -32 54t-61 23q-29 -4 -61.5 -23t-32.5 -54q0 -31 27 -49t67 -18q39 0 66 18.5t27 48.5z" />
    <glyph glyph-name="arrowleft" unicode="&#x2190;" horiz-adv-x="582" 
d="M281 81l-281 205l281 204l-12 -129h269v-150h-269z" />
    <glyph glyph-name="arrowup" unicode="&#x2191;" horiz-adv-x="582" 
d="M86 274l205 281l204 -281l-129 12v-269h-150v269z" />
    <glyph glyph-name="arrowright" unicode="&#x2192;" horiz-adv-x="582" 
d="M315 211h-268v150h268l-12 129l281 -204l-281 -205z" />
    <glyph glyph-name="arrowdown" unicode="&#x2193;" horiz-adv-x="582" 
d="M496 298l-205 -281l-204 281l129 -12v269h150v-269z" />
    <glyph glyph-name="partialdiff" unicode="&#x2202;" horiz-adv-x="572" 
d="M173 634l56 46q123 -64 209.5 -178t86.5 -253q0 -115 -65 -188t-174 -73q-108 0 -173.5 70.5t-65.5 175.5q0 104 62 174.5t158 70.5q99 0 155 -82q-30 67 -95 130t-154 107zM286 55q74 0 117 51.5t43 127.5q0 74 -43 126t-117 52t-117.5 -52t-43.5 -126q0 -75 43.5 -127
t117.5 -52z" />
    <glyph glyph-name="increment" unicode="&#x2206;" horiz-adv-x="658" 
d="M277 667h103l269 -667h-640zM128 74h402l-201 507z" />
    <glyph glyph-name="product" unicode="&#x220f;" horiz-adv-x="707" 
d="M483 593h-259v-683h-83v683h-109v74h643v-74h-109v-683h-83v683z" />
    <glyph glyph-name="summation" unicode="&#x2211;" horiz-adv-x="575" 
d="M154 -16h367v-74h-467v74l231 313l-230 296v74h466v-74h-364l229 -295z" />
    <glyph glyph-name="minus" unicode="&#x2212;" horiz-adv-x="499" 
d="M29 363h441v-52h-441v52z" />
    <glyph glyph-name="uni2215" unicode="&#x2215;" horiz-adv-x="138" 
d="M-172 0l426 667h56l-427 -667h-55z" />
    <glyph glyph-name="uni2219" unicode="&#x2219;" horiz-adv-x="230" 
d="M170 244q0 -22 -16.5 -38t-38.5 -16t-38.5 16t-16.5 38t16 38.5t39 16.5t39 -16.5t16 -38.5z" />
    <glyph glyph-name="radical" unicode="&#x221a;" horiz-adv-x="725" 
d="M239 327l-155 -61l-18 50l206 79l127 -317l235 589h59l-266 -667h-58z" />
    <glyph glyph-name="infinity" unicode="&#x221e;" horiz-adv-x="656" 
d="M183 170q-75 0 -114.5 49.5t-39.5 115.5q0 67 39 116t115 49q48 0 85.5 -31t58.5 -78q23 48 60.5 78.5t85.5 30.5q75 0 114.5 -49t39.5 -116q0 -66 -39.5 -115.5t-114.5 -49.5q-48 0 -85.5 30.5t-60.5 78.5q-21 -47 -58.5 -78t-85.5 -31zM189 222q72 0 115 113
q-43 113 -115 113q-48 0 -76 -31.5t-28 -81.5q0 -49 28 -81t76 -32zM468 223q48 0 75.5 31t27.5 81t-27.5 81.5t-75.5 31.5q-39 0 -68.5 -33t-46.5 -80q17 -47 46.5 -79.5t68.5 -32.5z" />
    <glyph glyph-name="integral" unicode="&#x222b;" horiz-adv-x="348" 
d="M17 -45h61q27 0 46.5 23t19.5 57v598q0 60 37.5 97.5t87.5 37.5h62v-55h-62q-27 0 -46.5 -22.5t-19.5 -57.5v-599q0 -59 -37.5 -96.5t-87.5 -37.5h-61v55z" />
    <glyph glyph-name="approxequal" unicode="&#x2248;" horiz-adv-x="499" 
d="M29 400v58q49 -33 110 -33q46 0 104.5 29.5t115.5 29.5q60 0 111 -27v-59q-47 33 -111 33q-47 0 -105 -29t-115 -29q-61 0 -110 27zM29 211v59q47 -33 110 -33q46 0 104.5 29t115.5 29q60 0 111 -27v-59q-49 34 -111 34q-47 0 -105 -29.5t-115 -29.5q-63 0 -110 27z" />
    <glyph glyph-name="notequal" unicode="&#x2260;" horiz-adv-x="499" 
d="M144 211h-115v52h148l90 141h-238v53h272l74 117h55l-75 -117h115v-53h-148l-90 -141h238v-52h-272l-75 -118h-54z" />
    <glyph glyph-name="lessequal" unicode="&#x2264;" horiz-adv-x="499" 
d="M29 370l441 219v-63l-377 -183l377 -182v-62l-441 218v53zM29 52h441v-52h-441v52z" />
    <glyph glyph-name="greaterequal" unicode="&#x2265;" horiz-adv-x="499" 
d="M28 161l377 182l-377 183v63l441 -219v-53l-441 -218v62zM28 52h441v-52h-441v52z" />
    <glyph glyph-name="uni22B2" unicode="&#x22b2;" horiz-adv-x="587" 
d="M54 595l535 -309l-535 -309v618z" />
    <glyph glyph-name="uni22B3" unicode="&#x22b3;" horiz-adv-x="587" 
d="M0 286l535 309v-618z" />
    <glyph glyph-name="dotmath" unicode="&#x22c5;" horiz-adv-x="230" 
d="M170 244q0 -22 -16.5 -38t-38.5 -16t-38.5 16t-16.5 38t16 38.5t39 16.5t39 -16.5t16 -38.5z" />
    <glyph glyph-name="uni2318" unicode="&#x2318;" horiz-adv-x="667" 
d="M441 265h73q46 0 78.5 -32.5t32.5 -78.5t-32.5 -79t-78.5 -33t-79 33t-33 79v74h-137v-74q0 -46 -33 -79t-79 -33t-78.5 33t-32.5 79t32.5 78.5t78.5 32.5h73v137h-72q-46 0 -79 33t-33 79t33 78.5t79 32.5t78.5 -32.5t32.5 -78.5v-75h137v75q0 46 33 78.5t79 32.5
t78.5 -32.5t32.5 -78.5t-32.5 -79t-78.5 -33h-73v-137zM226 439v75q0 31 -20.5 52.5t-51.5 21.5t-52.5 -21.5t-21.5 -52.5t21.5 -53t52.5 -22h72zM441 439h73q30 0 51 22t21 53t-20.5 52.5t-51.5 21.5t-52 -21.5t-21 -52.5v-75zM402 402h-137v-137h137v137zM226 228h-74
q-31 0 -51.5 -21.5t-20.5 -52.5t21 -53t52 -22t52 22t21 53v74zM441 228v-74q0 -31 21 -53t52 -22q30 0 51 22t21 53t-20.5 52.5t-51.5 21.5h-73z" />
    <glyph glyph-name="blacksquare" unicode="&#x25a0;" horiz-adv-x="661" 
d="M47 572h571v-572h-571v572z" />
    <glyph glyph-name="triagup" unicode="&#x25b2;" horiz-adv-x="616" 
d="M307 565l310 -535h-619z" />
    <glyph glyph-name="triagdn" unicode="&#x25bc;" horiz-adv-x="616" 
d="M-2 510h619l-310 -535z" />
    <glyph glyph-name="lozenge" unicode="&#x25ca;" horiz-adv-x="375" 
d="M19 334l158 333h21l158 -333l-158 -334h-21zM187 626l-132 -292l133 -293l132 293z" />
    <glyph glyph-name="blackcircle" unicode="&#x25cf;" horiz-adv-x="695" 
d="M644 285q0 -123 -87 -210t-210 -87t-210 87t-87 210t87 210t210 87t210 -87t87 -210z" />
    <glyph glyph-name="uni2610" unicode="&#x2610;" horiz-adv-x="661" 
d="M45 572h571v-572h-571v572zM101 519v-467h458v467h-458z" />
    <glyph glyph-name="uni2611" unicode="&#x2611;" horiz-adv-x="661" 
d="M616 572v-572h-571v572h502l84 155l46 -29l-69 -126h8zM348 91l-202 246l42 39l152 -188l178 331h-417v-467h458v428z" />
    <glyph glyph-name="diamond" unicode="&#x2666;" horiz-adv-x="501" 
d="M0 285l250 251l251 -251l-251 -250z" />
    <glyph glyph-name="checkmark" unicode="&#x2713;" horiz-adv-x="531" 
d="M0 337l42 39l152 -188l291 539l46 -29l-329 -607z" />
    <glyph glyph-name="uni2B51" unicode="&#x2b51;" horiz-adv-x="759" 
d="M614 -25l-235 170l-234 -170l89 275l-234 171h290l89 276l90 -276h290l-235 -171z" />
    <glyph glyph-name="uniF628" unicode="&#xf628;" horiz-adv-x="878" 
d="M288 425q0 -58 -37 -97t-95 -39q-57 0 -93.5 39t-36.5 97t36.5 97.5t93.5 39.5q58 0 95 -39.5t37 -97.5zM78 0l382 550h54l-384 -550h-52zM236 425q0 40 -22.5 66.5t-57.5 26.5q-34 0 -56.5 -27t-22.5 -66t22.5 -65.5t56.5 -26.5q36 0 58 26t22 66zM566 125
q0 -58 -37 -97t-94 -39t-94 39t-37 97q0 59 37 98t94 39t94 -39t37 -98zM852 125q0 -58 -37 -97t-94 -39t-93.5 40t-36.5 96q0 59 36.5 98t93.5 39t94 -39t37 -98zM514 125q0 40 -22 66.5t-57 26.5q-36 0 -58 -26.5t-22 -66.5q0 -39 22.5 -65.5t57.5 -26.5t57 26.5t22 65.5z
M801 125q0 40 -22 66.5t-58 26.5q-35 0 -57 -26.5t-22 -66.5q0 -39 22 -65.5t57 -26.5t57.5 26.5t22.5 65.5z" />
    <glyph glyph-name="uniF637" unicode="&#xf637;" horiz-adv-x="398" 
d="M280 326v202q0 72 -71 72q-54 0 -92 -46v-228h-57v434h57v-165q47 53 116 53q105 0 105 -107v-215h-58z" />
    <glyph glyph-name="uniF638" unicode="&#xf638;" horiz-adv-x="598" 
d="M539 667l-54 -87q69 -96 69 -247q0 -64 -14.5 -123t-44 -110t-80.5 -81.5t-116 -30.5q-88 0 -149 55l-27 -43h-65l54 86q-68 95 -68 247q0 64 14.5 123t44 109.5t80 81t116.5 30.5q85 0 147 -54l28 44h65zM159 162l246 394q-42 47 -106 47q-60 0 -100 -41t-55 -99
t-15 -130q0 -101 30 -171zM438 504l-246 -394q42 -48 107 -48q60 0 100 41.5t55 99.5t15 130q0 102 -31 171z" />
    <glyph glyph-name="uniF639" unicode="&#xf639;" horiz-adv-x="598" 
d="M299 -12q-66 0 -116.5 30.5t-80 81.5t-44 110t-14.5 123t14.5 123t44 109.5t80 81t116.5 30.5q65 0 116 -30.5t80.5 -81t44 -109.5t14.5 -123t-14.5 -123t-44 -110t-80.5 -81.5t-116 -30.5zM299 62q60 0 100 41.5t55 99.5t15 130t-15 130t-55 99t-100 41t-100 -41
t-55 -99t-15 -130t15 -130t55 -99.5t100 -41.5z" />
    <glyph glyph-name="uniF63A" unicode="&#xf63a;" horiz-adv-x="598" 
d="M69 0v66q104 82 161.5 130.5t111 103t75.5 97t22 84.5q0 60 -41 91t-98 31q-115 0 -181 -84l-51 53q38 50 99.5 77.5t132.5 27.5q91 0 157.5 -51t66.5 -145q0 -93 -80 -185.5t-244 -221.5h327v-74h-458z" />
    <glyph glyph-name="uniF63B" unicode="&#xf63b;" horiz-adv-x="598" 
d="M116 522l-46 52q85 103 228 103q99 0 162.5 -47.5t63.5 -130.5q0 -66 -44 -105.5t-100 -49.5q55 -5 104.5 -48t49.5 -116q0 -85 -64 -138.5t-172 -53.5q-80 0 -142 31t-95 79l49 52q30 -40 79 -64t107 -24q73 0 114.5 33.5t41.5 91.5q0 60 -44.5 89t-121.5 29
q-59 0 -69 -1v76q11 -1 69 -1q68 0 111.5 27.5t43.5 82.5q0 53 -42.5 83.5t-106.5 30.5q-101 0 -176 -81z" />
    <glyph glyph-name="uniF63C" unicode="&#xf63c;" horiz-adv-x="598" 
d="M368 169h-317v69l286 429h114v-425h94v-73h-94v-169h-83v169zM134 242h234v348z" />
    <glyph glyph-name="uniF63D" unicode="&#xf63d;" horiz-adv-x="598" 
d="M173 593v-232q60 60 156 60q88 0 150 -57.5t62 -155.5q0 -100 -67 -160t-170 -60q-154 0 -235 107l51 55q69 -88 184 -88q68 0 111 41t43 102q0 65 -42.5 104.5t-110.5 39.5q-90 0 -154 -63l-61 21v360h408v-74h-325z" />
    <glyph glyph-name="uniF63E" unicode="&#xf63e;" horiz-adv-x="598" 
d="M514 597l-42 -62q-58 68 -143 68q-62 0 -105.5 -39t-63 -96.5t-19.5 -126.5q0 -17 1 -26q25 40 77.5 72t111.5 32q95 0 156.5 -55.5t61.5 -157.5q0 -91 -64 -154.5t-170 -63.5q-67 0 -118 28t-80.5 76.5t-44 109t-14.5 130.5q0 94 28 170t90.5 125.5t152.5 49.5
q115 0 185 -80zM312 62q72 0 112.5 43.5t40.5 97.5q0 70 -43 107t-111 37q-49 0 -94 -27.5t-73 -72.5q7 -74 48 -129.5t120 -55.5z" />
    <glyph glyph-name="uniF63F" unicode="&#xf63f;" horiz-adv-x="598" 
d="M431 593h-359v74h455v-57l-273 -610h-92z" />
    <glyph glyph-name="uniF640" unicode="&#xf640;" horiz-adv-x="598" 
d="M299 -12q-102 0 -170.5 49t-68.5 132q0 63 45.5 109t113.5 66q-64 18 -106 58.5t-42 101.5q0 84 68 128.5t160 44.5t160.5 -44.5t68.5 -128.5q0 -61 -42 -101.5t-107 -58.5q68 -20 113.5 -66t45.5 -109q0 -82 -68.5 -131.5t-170.5 -49.5zM299 378q20 3 40.5 10t46.5 19.5
t42 35t16 50.5q0 50 -41.5 80t-103.5 30q-63 0 -104 -30t-41 -80q0 -28 16 -50.5t42 -35t46.5 -19t40.5 -10.5zM299 62q64 0 109.5 32t45.5 84q0 40 -31.5 70.5t-64 43t-59.5 15.5q-27 -3 -59.5 -15.5t-64.5 -43t-32 -70.5q0 -52 45.5 -84t110.5 -32z" />
    <glyph glyph-name="uniF641" unicode="&#xf641;" horiz-adv-x="598" 
d="M84 69l42 62q58 -68 143 -68q64 0 108 40t62 97t18 124q0 18 -1 27q-25 -40 -77 -72t-111 -32q-95 0 -157 55.5t-62 157.5q0 90 64 154t169 64q68 0 119 -28t80.5 -77t44 -109t14.5 -131q0 -94 -28 -169.5t-90.5 -125t-152.5 -49.5q-115 0 -185 80zM287 319q49 0 94.5 27
t71.5 72q-6 74 -47 130t-120 56q-71 0 -112 -44t-41 -97q0 -70 43 -107t111 -37z" />
    <glyph glyph-name="uniF642" unicode="&#xf642;" horiz-adv-x="592" 
d="M288 425q0 -58 -37 -97t-95 -39q-57 0 -93.5 39t-36.5 97t36.5 97.5t93.5 39.5q58 0 95 -39.5t37 -97.5zM78 0l382 550h54l-384 -550h-52zM236 425q0 40 -22.5 66.5t-57.5 26.5q-34 0 -56.5 -27t-22.5 -66t22.5 -65.5t56.5 -26.5q36 0 58 26t22 66zM566 125
q0 -58 -37 -97t-94 -39t-94 39t-37 97q0 59 37 98t94 39t94 -39t37 -98zM514 125q0 40 -22 66.5t-57 26.5q-36 0 -58 -26.5t-22 -66.5t22 -66t58 -26q35 0 57 26.5t22 65.5z" />
    <glyph glyph-name="uniF643" unicode="&#xf643;" horiz-adv-x="598" 
d="M554 275q0 -75 -25.5 -138t-85 -106t-144.5 -43t-144.5 43t-85 106t-25.5 138q0 56 15 106t45 91t80.5 65.5t114.5 24.5t114.5 -24.5t80.5 -65.5t45 -91t15 -106zM469 275q0 89 -43 151t-127 62t-127 -62t-43 -151t43 -151t127 -62t127 62t43 151z" />
    <glyph glyph-name="uniF644" unicode="&#xf644;" horiz-adv-x="598" 
d="M312 440l-107 -113l-50 51l167 172h73v-550h-83v440z" />
    <glyph glyph-name="uniF645" unicode="&#xf645;" horiz-adv-x="598" 
d="M78 0v67q180 74 269 152t89 152q0 51 -39.5 84t-96.5 33q-58 0 -106.5 -22.5t-79.5 -61.5l-51 53q38 49 102.5 77t136.5 28q95 0 156.5 -49.5t61.5 -130.5q0 -88 -81 -170.5t-208 -137.5h278v-74h-431z" />
    <glyph glyph-name="uniF646" unicode="&#xf646;" horiz-adv-x="598" 
d="M116 403l-46 52q85 103 228 103q99 0 162.5 -47.5t63.5 -130.5q0 -66 -44 -105.5t-100 -49.5q55 -5 104.5 -48t49.5 -116q0 -85 -64 -138.5t-172 -53.5q-80 0 -142 31t-95 79l49 52q30 -40 79 -64t107 -24q73 0 114.5 33.5t41.5 91.5q0 60 -44.5 89t-121.5 29
q-59 0 -69 -1v76q11 -1 69 -1q68 0 111.5 27.5t43.5 82.5q0 53 -42.5 83.5t-106.5 30.5q-101 0 -176 -81z" />
    <glyph glyph-name="uniF647" unicode="&#xf647;" horiz-adv-x="598" 
d="M451 -117h-83v172h-317v69l286 426h114v-422h94v-73h-94v-172zM134 128h234v345z" />
    <glyph glyph-name="uniF648" unicode="&#xf648;" horiz-adv-x="598" 
d="M173 476v-232q60 60 156 60q88 0 150 -57.5t62 -155.5q0 -100 -67 -160t-170 -60q-154 0 -235 107l51 55q69 -88 184 -88q68 0 111 41t43 102q0 65 -42.5 104.5t-110.5 39.5q-90 0 -154 -63l-61 21v360h408v-74h-325z" />
    <glyph glyph-name="uniF649" unicode="&#xf649;" horiz-adv-x="598" 
d="M514 597l-42 -62q-58 68 -143 68q-62 0 -105.5 -39t-63 -96.5t-19.5 -126.5q0 -17 1 -26q25 40 77.5 72t111.5 32q95 0 156.5 -55.5t61.5 -157.5q0 -91 -64 -154.5t-170 -63.5q-67 0 -118 28t-80.5 76.5t-44 109t-14.5 130.5q0 94 28 170t90.5 125.5t152.5 49.5
q115 0 185 -80zM312 62q72 0 112.5 43.5t40.5 97.5q0 70 -43 107t-111 37q-49 0 -94 -27.5t-73 -72.5q7 -74 48 -129.5t120 -55.5z" />
    <glyph glyph-name="uniF64A" unicode="&#xf64a;" horiz-adv-x="598" 
d="M431 476h-359v74h455v-57l-273 -610h-92z" />
    <glyph glyph-name="uniF64B" unicode="&#xf64b;" horiz-adv-x="598" 
d="M299 -12q-102 0 -170.5 49t-68.5 132q0 63 45.5 109t113.5 66q-64 18 -106 58.5t-42 101.5q0 84 68 128.5t160 44.5t160.5 -44.5t68.5 -128.5q0 -61 -42 -101.5t-107 -58.5q68 -20 113.5 -66t45.5 -109q0 -82 -68.5 -131.5t-170.5 -49.5zM299 378q20 3 40.5 10t46.5 19.5
t42 35t16 50.5q0 50 -41.5 80t-103.5 30q-63 0 -104 -30t-41 -80q0 -28 16 -50.5t42 -35t46.5 -19t40.5 -10.5zM299 62q64 0 109.5 32t45.5 84q0 40 -31.5 70.5t-64 43t-59.5 15.5q-27 -3 -59.5 -15.5t-64.5 -43t-32 -70.5q0 -52 45.5 -84t110.5 -32z" />
    <glyph glyph-name="uniF64C" unicode="&#xf64c;" horiz-adv-x="598" 
d="M84 -47l42 62q58 -68 143 -68q64 0 108 40t62 97t18 124q0 18 -1 27q-25 -40 -77 -72t-111 -32q-95 0 -157 55.5t-62 157.5q0 90 64 154t169 64q68 0 119 -28t80.5 -77t44 -109t14.5 -131q0 -94 -28 -169.5t-90.5 -125t-152.5 -49.5q-115 0 -185 80zM287 203
q49 0 94.5 27t71.5 72q-6 74 -47 130t-120 56q-71 0 -112 -44t-41 -97q0 -70 43 -107t111 -37z" />
    <glyph glyph-name="uniF64D" unicode="&#xf64d;" horiz-adv-x="582" 
d="M138 -53l31 91q-57 38 -89.5 99.5t-32.5 137.5q0 126 83.5 206.5t209.5 80.5h5l13 37h43l-14 -41q29 -4 58 -17l20 58h43l-26 -77q45 -28 77 -73l-63 -35q-15 22 -38 39l-133 -396h15q48 0 90 21.5t66 57.5l64 -35q-83 -113 -220 -113q-12 0 -38 2l-14 -43h-43l16 50
q-27 7 -57 20l-23 -70h-43zM194 113l128 379q-85 -6 -140 -66.5t-55 -150.5q0 -98 67 -162zM364 491l-136 -404q32 -18 57 -24l138 412q-30 13 -59 16z" />
    <glyph glyph-name="Euro.onum" unicode="&#xf64e;" horiz-adv-x="610" 
d="M410 313h-253q-2 -13 -2 -38q0 -21 3 -39h252v-44h-240q23 -62 76 -98.5t122 -36.5q48 0 90 21.5t66 57.5l64 -35q-83 -113 -220 -113q-103 0 -180 55.5t-102 148.5h-55v44h46q-2 12 -2 39q0 25 2 38h-46v44h54q26 93 103 149t180 56q139 0 219 -113l-63 -35
q-25 36 -66.5 57.5t-89.5 21.5q-69 0 -122.5 -36.5t-76.5 -99.5h241v-44z" />
    <glyph glyph-name="uniF650" unicode="&#xf650;" horiz-adv-x="496" 
d="M373 347l-47 -141h89l-15 -47h-90l-54 -159h-57l54 159h-90l-53 -159h-57l53 159h-84l14 47h87l47 141h-87l14 47h88l53 156h57l-54 -156h90l54 156h57l-54 -156h87l-14 -47h-88zM179 206h90l46 141h-88z" />
    <glyph glyph-name="uniF651" unicode="&#xf651;" horiz-adv-x="425" 
d="M14 272h71q-48 67 -48 125q0 70 53.5 117t130.5 47q55 0 100 -24t67 -66l-59 -32q-30 64 -102 64q-47 0 -80 -29.5t-33 -77.5q0 -8 1 -15.5t3 -15.5t4 -13.5t6.5 -14.5t6 -13t7.5 -14t8 -12.5t9 -13.5t8 -12h135v-48h-106q12 -27 12 -51q0 -61 -54 -96q9 4 22 4
q29 0 68.5 -14.5t60.5 -14.5q23 0 45 9t32 22l34 -55q-39 -39 -115 -39q-37 0 -75 16.5t-70 16.5q-33 0 -95 -30l-26 54q106 45 106 113q0 28 -23 65h-104v48z" />
    <glyph glyph-name="uniF652" unicode="&#xf652;" horiz-adv-x="547" 
d="M236 113h-213v48h213v71h-213v47h180l-196 271h91l177 -250l174 250h91l-193 -271h175v-47h-208v-71h208v-48h-208v-113h-78v113z" />
    <glyph glyph-name="uniF654" unicode="&#xf654;" horiz-adv-x="582" 
d="M309 -92v82q-115 10 -188.5 88.5t-73.5 196.5t73.5 196.5t188.5 88.5v59h58v-59q120 -10 192 -111l-63 -35q-46 65 -129 77v-432q86 11 129 77l64 -35q-75 -101 -193 -111v-82h-58zM309 59v432q-80 -11 -131 -70.5t-51 -145.5q0 -85 51.5 -145t130.5 -71z" />
    <glyph glyph-name="uniF655" unicode="&#xf655;" 
d="M355 200q0 -83 -41 -145t-120 -62q-80 0 -120.5 61.5t-40.5 145.5t40.5 145t120.5 61q79 0 120 -61.5t41 -144.5zM293 200q0 68 -24 112.5t-75 44.5q-52 0 -76 -44.5t-24 -112.5t24 -113t76 -45q51 0 75 45t24 113z" />
    <glyph glyph-name="uniF656" unicode="&#xf656;" horiz-adv-x="235" 
d="M115 322l-66 -69l-35 37l108 110h53v-400h-60v322z" />
    <glyph glyph-name="uniF657" unicode="&#xf657;" 
d="M50 0v45q124 88 176.5 140.5t52.5 98.5q0 36 -25 54.5t-60 18.5q-73 0 -112 -52l-33 38q50 63 147 63q60 0 101.5 -30.5t41.5 -87.5q0 -56 -50 -111.5t-151 -127.5h203v-49h-291z" />
    <glyph glyph-name="uniF658" unicode="&#xf658;" 
d="M78 308l-31 36q55 62 145 62q64 0 104 -29t40 -78q0 -40 -27 -63.5t-62 -29.5q34 -3 65 -28t31 -69q0 -52 -41 -84t-110 -32q-103 0 -150 65l32 38q44 -54 116 -54q43 0 68 19t25 51q0 69 -104 69q-34 0 -40 -1v50q7 -1 39 -1q98 0 98 64q0 30 -25.5 47t-63.5 17
q-64 0 -109 -49z" />
    <glyph glyph-name="uniF659" unicode="&#xf659;" 
d="M294 0h-59v100h-196v44l172 256h83v-251h58v-49h-58v-100zM99 149h136v198z" />
    <glyph glyph-name="uniF65A" unicode="&#xf65a;" 
d="M116 351v-134q38 36 96 36q55 0 93.5 -33.5t38.5 -93.5t-43 -96.5t-109 -36.5q-99 0 -148 65l35 39q42 -55 113 -55q41 0 66.5 23.5t25.5 58.5q0 37 -24.5 60t-65.5 23q-56 0 -95 -39l-43 15v217h261v-49h-201z" />
    <glyph glyph-name="uniF65B" unicode="&#xf65b;" 
d="M329 360l-29 -42q-36 39 -88 39q-56 0 -85 -43t-29 -103v-17q18 24 49 42.5t66 18.5q59 0 98 -34.5t39 -95.5q0 -56 -40.5 -94t-106.5 -38q-84 0 -124.5 57.5t-40.5 148.5q0 90 45 148.5t129 58.5q69 0 117 -46zM290 123q0 41 -26 62.5t-66 21.5q-28 0 -54.5 -15
t-43.5 -41q3 -45 28 -77t72 -32q41 0 65.5 25t24.5 56z" />
    <glyph glyph-name="uniF65C" unicode="&#xf65c;" horiz-adv-x="362" 
d="M90 0l166 351h-223v49h290v-42l-166 -358h-67z" />
    <glyph glyph-name="uniF65D" unicode="&#xf65d;" 
d="M347 102q0 -52 -44.5 -80.5t-108.5 -28.5q-65 0 -109 28.5t-44 80.5q0 38 29 66t72 38q-41 10 -67.5 34t-26.5 61q0 52 43.5 78.5t102.5 26.5t102.5 -26.5t43.5 -78.5q0 -37 -26.5 -61t-67.5 -34q43 -10 72 -38t29 -66zM280 294q0 30 -24.5 47t-61.5 17q-38 0 -62.5 -17
t-24.5 -47q0 -51 87 -68q86 16 86 68zM287 107q0 35 -32 54t-61 23q-29 -4 -61.5 -23t-32.5 -54q0 -31 27 -49t67 -18q39 0 66 18.5t27 48.5z" />
    <glyph glyph-name="uniF65E" unicode="&#xf65e;" 
d="M60 39l28 42q36 -39 88 -39q55 0 84 42.5t30 104.5v16q-17 -24 -48 -42.5t-66 -18.5q-59 0 -98.5 34t-39.5 96q0 55 41 93.5t107 38.5q83 0 123.5 -58t40.5 -149q0 -89 -45 -147.5t-129 -58.5q-72 0 -116 46zM98 276q0 -41 26 -62.5t66 -21.5q63 0 98 56q-4 44 -28 76.5
t-71 32.5q-42 0 -66.5 -25t-24.5 -56z" />
    <glyph glyph-name="uniF661" unicode="&#xf661;" 
d="M355 467q0 -83 -41 -145t-120 -62q-80 0 -120.5 61.5t-40.5 145.5t40.5 145t120.5 61q79 0 120 -61.5t41 -144.5zM293 467q0 68 -24 112.5t-75 44.5q-52 0 -76 -44.5t-24 -112.5t24 -113t76 -45q51 0 75 45t24 113z" />
    <glyph glyph-name="uniF662" unicode="&#xf662;" horiz-adv-x="235" 
d="M115 589l-66 -69l-35 37l108 110h53v-400h-60v322z" />
    <glyph glyph-name="uniF663" unicode="&#xf663;" 
d="M50 267v45q124 88 176.5 140.5t52.5 98.5q0 36 -25 54.5t-60 18.5q-73 0 -112 -52l-33 38q50 63 147 63q60 0 101.5 -30.5t41.5 -87.5q0 -56 -50 -111.5t-151 -127.5h203v-49h-291z" />
    <glyph glyph-name="uniF664" unicode="&#xf664;" 
d="M78 575l-31 36q55 62 145 62q64 0 104 -29t40 -78q0 -40 -27 -63.5t-62 -29.5q34 -3 65 -28t31 -69q0 -52 -41 -84t-110 -32q-103 0 -150 65l32 38q44 -54 116 -54q43 0 68 19t25 51q0 69 -104 69q-34 0 -40 -1v50q7 -1 39 -1q98 0 98 64q0 30 -25.5 47t-63.5 17
q-64 0 -109 -49z" />
    <glyph glyph-name="uniF665" unicode="&#xf665;" 
d="M294 267h-59v100h-196v44l172 256h83v-251h58v-49h-58v-100zM99 416h136v198z" />
    <glyph glyph-name="uniF666" unicode="&#xf666;" 
d="M116 618v-134q38 36 96 36q55 0 93.5 -33.5t38.5 -93.5t-43 -96.5t-109 -36.5q-99 0 -148 65l35 39q42 -55 113 -55q41 0 66.5 23.5t25.5 58.5q0 37 -24.5 60t-65.5 23q-56 0 -95 -39l-43 15v217h261v-49h-201z" />
    <glyph glyph-name="uniF667" unicode="&#xf667;" 
d="M329 627l-29 -42q-36 39 -88 39q-56 0 -85 -43t-29 -103v-17q18 24 49 42.5t66 18.5q59 0 98 -34.5t39 -95.5q0 -56 -40.5 -94t-106.5 -38q-84 0 -124.5 57.5t-40.5 148.5q0 90 45 148.5t129 58.5q69 0 117 -46zM290 390q0 41 -26 62.5t-66 21.5q-28 0 -54.5 -15
t-43.5 -41q3 -45 28 -77t72 -32q41 0 65.5 25t24.5 56z" />
    <glyph glyph-name="uniF668" unicode="&#xf668;" horiz-adv-x="362" 
d="M90 267l166 351h-223v49h290v-42l-166 -358h-67z" />
    <glyph glyph-name="uniF669" unicode="&#xf669;" 
d="M347 369q0 -52 -44.5 -80.5t-108.5 -28.5q-65 0 -109 28.5t-44 80.5q0 38 29 66t72 38q-41 10 -67.5 34t-26.5 61q0 52 43.5 78.5t102.5 26.5t102.5 -26.5t43.5 -78.5q0 -37 -26.5 -61t-67.5 -34q43 -10 72 -38t29 -66zM280 561q0 30 -24.5 47t-61.5 17q-38 0 -62.5 -17
t-24.5 -47q0 -51 87 -68q86 16 86 68zM287 374q0 35 -32 54t-61 23q-29 -4 -61.5 -23t-32.5 -54q0 -31 27 -49t67 -18q39 0 66 18.5t27 48.5z" />
    <glyph glyph-name="uniF66A" unicode="&#xf66a;" 
d="M60 306l28 42q36 -39 88 -39q55 0 84 42.5t30 104.5v16q-17 -24 -48 -42.5t-66 -18.5q-59 0 -98.5 34t-39.5 96q0 55 41 93.5t107 38.5q83 0 123.5 -58t40.5 -149q0 -89 -45 -147.5t-129 -58.5q-72 0 -116 46zM98 543q0 -41 26 -62.5t66 -21.5q63 0 98 56q-4 44 -28 76.5
t-71 32.5q-42 0 -66.5 -25t-24.5 -56z" />
    <glyph glyph-name="uniF6AE" unicode="&#xf6ae;" horiz-adv-x="248" 
d="M230 -74l-45 -35q-141 193 -141 442q0 248 141 442l45 -34q-53 -105 -78.5 -198t-25.5 -210t25.5 -210.5t78.5 -196.5z" />
    <glyph glyph-name="uniF6AF" unicode="&#xf6af;" horiz-adv-x="248" 
d="M62 -109l-45 35q53 103 79 196.5t26 210.5q0 118 -26 211t-79 197l45 34q142 -193 142 -442q0 -250 -142 -442z" />
    <glyph glyph-name="uniF6B0" unicode="&#xf6b0;" horiz-adv-x="243" 
d="M40 768h186v-55h-128v-758h128v-55h-186v868z" />
    <glyph glyph-name="uniF6B1" unicode="&#xf6b1;" horiz-adv-x="243" 
d="M17 -45h128v758h-128v55h186v-868h-186v55z" />
    <glyph glyph-name="uniF6B2" unicode="&#xf6b2;" horiz-adv-x="260" 
d="M243 -100h-61q-50 0 -87.5 37.5t-37.5 96.5v206q0 30 -13.5 49.5t-38.5 19.5v50q25 0 38.5 19.5t13.5 49.5v205q0 60 37.5 97.5t87.5 37.5h61v-55h-61q-27 0 -46.5 -22.5t-19.5 -57.5v-211q0 -68 -46 -88q46 -20 46 -88v-211q0 -34 19.5 -57t46.5 -23h61v-55z" />
    <glyph glyph-name="uniF6B3" unicode="&#xf6b3;" horiz-adv-x="260" 
d="M17 -45h61q27 0 46.5 23t19.5 57v211q0 68 46 88q-46 20 -46 88v211q0 35 -19.5 57.5t-46.5 22.5h-61v55h61q50 0 87.5 -37.5t37.5 -97.5v-205q0 -30 13.5 -49.5t38.5 -19.5v-50q-25 0 -38.5 -19.5t-13.5 -49.5v-206q0 -59 -37.5 -96.5t-87.5 -37.5h-61v55z" />
    <glyph glyph-name="uniF6B4" unicode="&#xf6b4;" horiz-adv-x="230" 
d="M60 622q0 22 16.5 38.5t38.5 16.5t38.5 -16.5t16.5 -38.5t-16 -38.5t-39 -16.5t-39 16.5t-16 38.5zM146 480l16 -480h-93l15 480h62z" />
    <glyph glyph-name="uniF6B5" unicode="&#xf6b5;" horiz-adv-x="462" 
d="M238 677q22 0 38.5 -16.5t16.5 -39.5q0 -22 -16.5 -38t-38.5 -16t-38.5 16t-16.5 38q0 23 16.5 39.5t38.5 16.5zM198 453l60 27q39 -35 39 -82q0 -35 -18.5 -63t-45 -47.5t-53 -37.5t-45 -42.5t-18.5 -53.5q0 -39 30.5 -65.5t86.5 -26.5q99 0 160 81l49 -53
q-78 -102 -216 -102q-89 0 -142.5 44.5t-53.5 110.5q0 42 20 75.5t48 54.5t56.5 40t48.5 42t20 50q0 29 -26 48z" />
    <glyph glyph-name="guillemotleft.case" unicode="&#xf6b6;" horiz-adv-x="439" 
d="M30 342l160 177h75l-160 -177l160 -180h-75zM174 342l160 177h75l-160 -177l160 -180h-75z" />
    <glyph glyph-name="guillemotright.case" unicode="&#xf6b7;" horiz-adv-x="439" 
d="M30 162l160 180l-160 177h75l160 -177l-160 -180h-75zM174 162l160 180l-160 177h75l160 -177l-160 -180h-75z" />
    <glyph glyph-name="uniF6B8" unicode="&#xf6b8;" horiz-adv-x="295" 
d="M30 342l160 177h75l-160 -177l160 -180h-75z" />
    <glyph glyph-name="uniF6B9" unicode="&#xf6b9;" horiz-adv-x="295" 
d="M30 162l160 180l-160 177h75l160 -177l-160 -180h-75z" />
    <glyph glyph-name="uniF6BA" unicode="&#xf6ba;" horiz-adv-x="300" 
d="M30 374h240v-66h-240v66z" />
    <glyph glyph-name="uniF6BB" unicode="&#xf6bb;" horiz-adv-x="593" 
d="M30 374h533v-66h-533v66z" />
    <glyph glyph-name="uniF6BC" unicode="&#xf6bc;" horiz-adv-x="833" 
d="M30 374h773v-66h-773v66z" />
    <glyph glyph-name="uniF6BD" unicode="&#xf6bd;" horiz-adv-x="230" 
d="M170 342q0 -22 -16.5 -38t-38.5 -16t-38.5 16t-16.5 38t16 38.5t39 16.5t39 -16.5t16 -38.5z" />
    <glyph glyph-name="uniF6BE" unicode="&#xf6be;" horiz-adv-x="358" 
d="M288 341q0 -44 -32 -75.5t-76 -31.5t-76 31.5t-32 75.5t32 76t76 32t76 -32t32 -76z" />
    <glyph glyph-name="uniF6BF" unicode="&#xf6bf;" horiz-adv-x="495" 
d="M252 -4v91q-92 13 -148.5 82.5t-56.5 169.5q0 98 56.5 167.5t148.5 82.5v74h59v-72q94 -8 154 -83l-50 -46q-40 54 -104 62v-371q63 6 104 62l50 -46q-59 -77 -154 -83v-90h-59zM252 156v364q-59 -13 -93 -62.5t-34 -118.5q0 -70 34 -120t93 -63z" />
    <glyph glyph-name="uniF6DC" unicode="&#xf6dc;" horiz-adv-x="598" 
d="M312 557l-107 -113l-50 51l167 172h73v-667h-83v557z" />
    <glyph glyph-name="uniF6DD" unicode="&#xf6dd;" horiz-adv-x="1125" 
d="M294 265h-133v-265h-83v667h268q93 0 151 -55t58 -146q0 -86 -50 -137t-123 -57l180 -272h-98zM161 338h175q59 0 96 36t37 92t-37 91.5t-96 35.5h-175v-255zM704 483v-72q27 38 70 61t93 23q96 0 155.5 -68.5t59.5 -184.5t-59.5 -185t-155.5 -69q-102 0 -163 85v-257
h-75v667h75zM704 351v-218q20 -33 60.5 -55.5t83.5 -22.5q71 0 113 52.5t42 134.5t-42 134t-113 52q-43 0 -83.5 -22.5t-60.5 -54.5z" />
    <glyph glyph-name="uniF6DF" unicode="&#xf6df;" horiz-adv-x="307" 
d="M157 -151v55q-58 7 -93.5 49t-35.5 101t36 101t93 49v44h42v-43q56 -6 94 -53l-38 -30q-21 31 -56 37v-212q33 6 56 38l38 -30q-38 -46 -94 -52v-54h-42zM157 -52v210q-34 -8 -53.5 -36t-19.5 -68q0 -41 19.5 -69.5t53.5 -36.5z" />
    <glyph glyph-name="uniF6E0" unicode="&#xf6e0;" horiz-adv-x="307" 
d="M157 416v55q-58 7 -93.5 49t-35.5 101t36 101t93 49v44h42v-43q56 -6 94 -53l-38 -30q-21 31 -56 37v-212q33 6 56 38l38 -30q-38 -46 -94 -52v-54h-42zM157 515v210q-34 -8 -53.5 -36t-19.5 -68q0 -41 19.5 -69.5t53.5 -36.5z" />
    <glyph glyph-name="uniF6E1" unicode="&#xf6e1;" horiz-adv-x="139" 
d="M105 -122q0 -65 -51 -101l-26 21q15 9 27 25t13 29q-2 -1 -3 -1q-14 0 -25 10.5t-11 25.5t10.5 26t26.5 11q17 0 28 -13t11 -33z" />
    <glyph glyph-name="uniF6E2" unicode="&#xf6e2;" horiz-adv-x="139" 
d="M105 445q0 -65 -51 -101l-26 21q15 9 27 25t13 29q-2 -1 -3 -1q-14 0 -25 10.5t-11 25.5t10.5 26t26.5 11q17 0 28 -13t11 -33z" />
    <glyph glyph-name="uniF6E3" unicode="&#xf6e3;" horiz-adv-x="370" 
d="M169 -206v54q-93 6 -145 64l36 40q47 -49 109 -57v139q-31 7 -50 13.5t-41.5 19t-33.5 32.5t-11 49q0 46 38 77t98 34v56h42v-57q78 -9 121 -57l-34 -35q-34 37 -87 45v-126q30 -7 49.5 -14t41 -20.5t32.5 -34t11 -49.5q0 -51 -34.5 -82.5t-99.5 -36.5v-54h-42zM169 95
v118q-33 -3 -53.5 -20t-20.5 -41q0 -23 18.5 -35t55.5 -22zM211 24v-128q35 4 53.5 22t18.5 43t-18.5 39t-53.5 24z" />
    <glyph glyph-name="uniF6E4" unicode="&#xf6e4;" horiz-adv-x="370" 
d="M169 361v54q-93 6 -145 64l36 40q47 -49 109 -57v139q-31 7 -50 13.5t-41.5 19t-33.5 32.5t-11 49q0 46 38 77t98 34v56h42v-57q78 -9 121 -57l-34 -35q-34 37 -87 45v-126q30 -7 49.5 -14t41 -20.5t32.5 -34t11 -49.5q0 -51 -34.5 -82.5t-99.5 -36.5v-54h-42zM169 662
v118q-33 -3 -53.5 -20t-20.5 -41q0 -23 18.5 -35t55.5 -22zM211 591v-128q35 4 53.5 22t18.5 43q0 26 -18.5 39.5t-53.5 23.5z" />
    <glyph glyph-name="uniF6E5" unicode="&#xf6e5;" horiz-adv-x="183" 
d="M18 76h147v-46h-147v46z" />
    <glyph glyph-name="uniF6E6" unicode="&#xf6e6;" horiz-adv-x="183" 
d="M18 643h147v-46h-147v46z" />
    <glyph glyph-name="uniF6E7" unicode="&#xf6e7;" horiz-adv-x="142" 
d="M109 -113q0 -15 -11 -26t-26 -11q-16 0 -27.5 11t-11.5 26t11.5 26t27.5 11q15 0 26 -11t11 -26z" />
    <glyph glyph-name="uniF6E8" unicode="&#xf6e8;" horiz-adv-x="142" 
d="M109 454q0 -15 -11 -26t-26 -11q-16 0 -27.5 11t-11.5 26t11.5 26t27.5 11q15 0 26 -11t11 -26z" />
    <glyph glyph-name="uniF6E9" unicode="&#xf6e9;" horiz-adv-x="378" 
d="M260 326v35q-40 -43 -107 -43q-44 0 -78 28t-34 76q0 49 33.5 76t78.5 27q67 0 107 -42v55q0 30 -23 47.5t-56 17.5q-59 0 -99 -46l-25 37q52 54 131 54q57 0 93 -27t36 -84v-211h-57zM260 394v56q-29 38 -85 38q-33 0 -54.5 -18.5t-21.5 -47.5q0 -30 21.5 -48t54.5 -18
q56 0 85 38z" />
    <glyph glyph-name="uniF6EA" unicode="&#xf6ea;" horiz-adv-x="409" 
d="M60 760h58v-166q41 54 108 54q64 0 104 -45t40 -120q0 -76 -40 -120.5t-104 -44.5q-67 0 -108 53v-45h-58v434zM118 556v-147q13 -19 39 -32t54 -13q45 0 72.5 33t27.5 86q0 52 -27.5 85t-72.5 33q-28 0 -54 -13t-39 -32z" />
    <glyph glyph-name="uniF6EB" unicode="&#xf6eb;" horiz-adv-x="410" 
d="M292 326v45q-41 -53 -108 -53q-64 0 -104 44.5t-40 120.5q0 75 40.5 120t103.5 45q66 0 107 -54v166h58v-434h-57zM292 409v147q-13 19 -39 32t-54 13q-45 0 -72 -33t-27 -85q0 -53 27 -86t72 -33q29 0 54.5 13t38.5 32z" />
    <glyph glyph-name="uniF6EC" unicode="&#xf6ec;" horiz-adv-x="398" 
d="M310 400l26 -35q-50 -47 -129 -47q-73 0 -120 46t-47 119q0 69 46 117t116 48q71 0 113.5 -48t42.5 -122v-14h-258q4 -44 34 -73t77 -29q59 0 99 38zM100 506h203q-2 38 -28 68.5t-74 30.5q-45 0 -71.5 -30t-29.5 -69z" />
    <glyph glyph-name="uniF6EF" unicode="&#xf6ef;" horiz-adv-x="571" 
d="M453 326v209q0 65 -57 65q-23 0 -46 -14t-36 -32v-228h-57v209q0 65 -59 65q-22 0 -44.5 -14t-35.5 -32v-228h-58v314h58v-45q12 18 42 35.5t63 17.5q69 0 87 -59q15 24 45 41.5t65 17.5q90 0 90 -100v-222h-57z" />
    <glyph glyph-name="uniF6F0" unicode="&#xf6f0;" horiz-adv-x="405" 
d="M202 318q-73 0 -117.5 47.5t-44.5 117.5t44.5 117.5t117.5 47.5q74 0 118.5 -47.5t44.5 -117.5t-44.5 -117.5t-118.5 -47.5zM202 366q48 0 76 33t28 84q0 50 -28 82.5t-76 32.5q-47 0 -74.5 -32.5t-27.5 -82.5q0 -51 27.5 -84t74.5 -33z" />
    <glyph glyph-name="uniF6F3" unicode="&#xf6f3;" horiz-adv-x="206" 
d="M120 597v-193q0 -39 31 -39q21 0 33 12q3 -8 9 -22t7 -16q-23 -21 -61 -21q-77 0 -77 78v201h-53v43h53v86h58v-86h65v-43h-65z" />
    <glyph glyph-name="uniF721" unicode="&#xf721;" horiz-adv-x="230" 
d="M86 166l-14 384h87l-14 -384h-59zM170 45q0 -23 -16 -39t-39 -16t-39 16t-16 39q0 22 16.5 38t38.5 16t38.5 -16t16.5 -38z" />
    <glyph glyph-name="uniF724" unicode="&#xf724;" horiz-adv-x="504" 
d="M225 -74v63q-125 9 -193 85l42 59q60 -66 151 -77v197q-40 10 -65 19t-53.5 26t-42.5 44t-14 63q0 63 49 106t126 50v67h60v-68q103 -10 170 -77l-41 -55q-48 51 -129 63v-174q41 -10 67.5 -20.5t56 -28.5t44.5 -47t15 -68q0 -67 -46.5 -112t-136.5 -52v-63h-60zM225 332
v160q-42 -5 -68.5 -28.5t-26.5 -56.5q0 -29 24 -45.5t71 -29.5zM285 238v-181q52 6 77.5 32t25.5 61t-26.5 54.5t-76.5 33.5z" />
    <glyph glyph-name="uniF726" unicode="&#xf726;" horiz-adv-x="556" 
d="M536 0h-95q-4 3 -64 58q-74 -69 -168 -69q-81 0 -131.5 41.5t-50.5 114.5q0 59 33.5 96.5t92.5 67.5q-43 68 -43 122q0 56 42.5 93.5t104.5 37.5q58 0 96 -29t38 -82q0 -30 -11.5 -54t-36 -43.5t-44.5 -30.5t-55 -28q25 -31 66 -74q32 -36 68 -72q39 57 60 125l59 -24
q-36 -87 -77 -143q48 -46 116 -107zM179 430q0 -39 35 -92q56 26 84.5 49.5t28.5 60.5q0 29 -18.5 45t-48.5 16q-36 0 -58.5 -22.5t-22.5 -56.5zM216 44q63 0 119 54q-48 48 -78 81q-45 50 -73 86q-84 -48 -84 -115q0 -46 32.5 -76t83.5 -30z" />
    <glyph glyph-name="uniF730" unicode="&#xf730;" horiz-adv-x="612" 
d="M561 275q0 -75 -25.5 -138t-85 -106t-144.5 -43t-144.5 43t-85 106t-25.5 138q0 56 15 106t45 91t80.5 65.5t114.5 24.5t114.5 -24.5t80.5 -65.5t45 -91t15 -106zM476 275q0 89 -43 151t-127 62t-127 -62t-43 -151t43 -151t127 -62t127 62t43 151z" />
    <glyph glyph-name="uniF731" unicode="&#xf731;" horiz-adv-x="339" 
d="M178 440l-107 -113l-50 51l167 172h73v-550h-83v440z" />
    <glyph glyph-name="uniF732" unicode="&#xf732;" horiz-adv-x="578" 
d="M60 0v67q180 74 269 152t89 152q0 51 -39.5 84t-96.5 33q-58 0 -106.5 -22.5t-79.5 -61.5l-51 53q38 49 102.5 77t136.5 28q95 0 156.5 -49.5t61.5 -130.5q0 -88 -81 -170.5t-208 -137.5h278v-74h-431z" />
    <glyph glyph-name="uniF733" unicode="&#xf733;" horiz-adv-x="553" 
d="M80 406l-46 52q85 103 228 103q99 0 162.5 -47.5t63.5 -130.5q0 -66 -44 -105.5t-100 -49.5q55 -5 104.5 -48t49.5 -116q0 -85 -64 -138.5t-172 -53.5q-80 0 -142 31t-95 79l49 52q30 -40 79 -64t107 -24q73 0 114.5 33.5t41.5 91.5q0 60 -44.5 89t-121.5 29
q-59 0 -69 -1v76q11 -1 69 -1q68 0 111.5 27.5t43.5 82.5q0 53 -42.5 83.5t-106.5 30.5q-101 0 -176 -81z" />
    <glyph glyph-name="uniF734" unicode="&#xf734;" horiz-adv-x="558" 
d="M432 -117h-83v172h-317v69l286 426h114v-422h94v-73h-94v-172zM115 128h234v345z" />
    <glyph glyph-name="uniF735" unicode="&#xf735;" horiz-adv-x="590" 
d="M170 476v-232q60 60 156 60q88 0 150 -57.5t62 -155.5q0 -100 -67 -160t-170 -60q-154 0 -235 107l51 55q69 -88 184 -88q68 0 111 41t43 102q0 65 -42.5 104.5t-110.5 39.5q-90 0 -154 -63l-61 21v360h408v-74h-325z" />
    <glyph glyph-name="uniF736" unicode="&#xf736;" horiz-adv-x="591" 
d="M507 597l-42 -62q-58 68 -143 68q-62 0 -105.5 -39t-63 -96.5t-19.5 -126.5q0 -17 1 -26q25 40 77.5 72t111.5 32q95 0 156.5 -55.5t61.5 -157.5q0 -91 -64 -154.5t-170 -63.5q-67 0 -118 28t-80.5 76.5t-44 109t-14.5 130.5q0 94 28 170t90.5 125.5t152.5 49.5
q115 0 185 -80zM305 62q72 0 112.5 43.5t40.5 97.5q0 70 -43 107t-111 37q-49 0 -94 -27.5t-73 -72.5q7 -74 48 -129.5t120 -55.5z" />
    <glyph glyph-name="uniF737" unicode="&#xf737;" horiz-adv-x="515" 
d="M390 476h-359v74h455v-57l-273 -610h-92z" />
    <glyph glyph-name="uniF738" unicode="&#xf738;" horiz-adv-x="581" 
d="M291 -12q-102 0 -170.5 49t-68.5 132q0 63 45.5 109t113.5 66q-64 18 -106 58.5t-42 101.5q0 84 68 128.5t160 44.5t160.5 -44.5t68.5 -128.5q0 -61 -42 -101.5t-107 -58.5q68 -20 113.5 -66t45.5 -109q0 -82 -68.5 -131.5t-170.5 -49.5zM291 378q20 3 40.5 10t46.5 19.5
t42 35t16 50.5q0 50 -41.5 80t-103.5 30q-63 0 -104 -30t-41 -80q0 -28 16 -50.5t42 -35t46.5 -19t40.5 -10.5zM291 62q64 0 109.5 32t45.5 84q0 40 -31.5 70.5t-64 43t-59.5 15.5q-27 -3 -59.5 -15.5t-64.5 -43t-32 -70.5q0 -52 45.5 -84t110.5 -32z" />
    <glyph glyph-name="uniF739" unicode="&#xf739;" horiz-adv-x="591" 
d="M84 -47l42 62q58 -68 143 -68q64 0 108 40t62 97t18 124q0 18 -1 27q-25 -40 -77 -72t-111 -32q-95 0 -157 55.5t-62 157.5q0 90 64 154t169 64q68 0 119 -28t80.5 -77t44 -109t14.5 -131q0 -94 -28 -169.5t-90.5 -125t-152.5 -49.5q-115 0 -185 80zM287 203
q49 0 94.5 27t71.5 72q-6 74 -47 130t-120 56q-71 0 -112 -44t-41 -97q0 -70 43 -107t111 -37z" />
    <glyph glyph-name="uniF73F" unicode="&#xf73f;" horiz-adv-x="396" 
d="M50 426l-40 47q68 88 190 88q78 0 125.5 -37t47.5 -90q0 -42 -26.5 -74t-57.5 -49t-57.5 -39.5t-26.5 -46.5q0 -23 26 -40l-58 -24q-35 27 -35 65q0 28 16.5 50.5t39.5 38t46 30.5t39.5 34t16.5 42q0 33 -27 53.5t-75 20.5q-88 0 -144 -69zM246 45q0 -23 -16 -39t-39 -16
t-39 16t-16 39t16 39t39 16t39 -16t16 -39z" />
    <glyph glyph-name="uniF761" unicode="&#xf761;" horiz-adv-x="572" 
d="M565 0h-87l-51 120h-282l-50 -120h-88l232 550h94zM169 189h234l-117 279z" />
    <glyph glyph-name="uniF762" unicode="&#xf762;" horiz-adv-x="554" 
d="M75 550h259q75 0 119 -39t44 -102q0 -47 -27 -80.5t-67 -44.5q45 -11 75.5 -49.5t30.5 -85.5q0 -68 -45 -108.5t-124 -40.5h-265v550zM153 316h171q44 0 68.5 23t24.5 59q0 38 -24.5 60.5t-68.5 22.5h-171v-165zM153 69h176q46 0 72.5 23.5t26.5 64.5q0 37 -26 63.5
t-73 26.5h-176v-178z" />
    <glyph glyph-name="uniF763" unicode="&#xf763;" horiz-adv-x="582" 
d="M496 136l64 -35q-83 -113 -220 -113q-126 0 -209.5 80.5t-83.5 206.5t83.5 206.5t209.5 80.5q139 0 219 -113l-63 -35q-25 36 -66.5 57.5t-89.5 21.5q-91 0 -152 -61.5t-61 -156.5q0 -94 61 -156t152 -62q48 0 90 21.5t66 57.5z" />
    <glyph glyph-name="uniF764" unicode="&#xf764;" horiz-adv-x="615" 
d="M75 550h199q133 0 213.5 -78t80.5 -198q0 -119 -80 -196.5t-213 -77.5h-200v550zM153 69h121q100 0 156.5 58t56.5 147q0 90 -56 148.5t-156 58.5h-122v-412z" />
    <glyph glyph-name="uniF765" unicode="&#xf765;" horiz-adv-x="509" 
d="M75 550h382v-69h-304v-165h299v-69h-299v-178h304v-69h-382v550z" />
    <glyph glyph-name="uniF766" unicode="&#xf766;" horiz-adv-x="491" 
d="M75 550h382v-69h-304v-165h299v-69h-299v-247h-78v550z" />
    <glyph glyph-name="uniF767" unicode="&#xf767;" horiz-adv-x="626" 
d="M566 287v-203q-89 -96 -225 -96q-126 0 -210 80t-84 207t84 207t210 80q134 0 221 -101l-61 -41q-60 72 -160 72q-91 0 -152 -61t-61 -156q0 -94 61 -156.5t152 -62.5q87 0 147 58v107h-170v66h248z" />
    <glyph glyph-name="uniF768" unicode="&#xf768;" horiz-adv-x="635" 
d="M482 248h-329v-248h-78v550h78v-233h329v233h78v-550h-78v248z" />
    <glyph glyph-name="uniF769" unicode="&#xf769;" horiz-adv-x="229" 
d="M75 550h78v-550h-78v550z" />
    <glyph glyph-name="uniF76A" unicode="&#xf76a;" horiz-adv-x="422" 
d="M346 550v-386q0 -87 -52 -131.5t-137 -44.5q-93 0 -149 68l38 57q43 -56 107 -56q52 0 83.5 31t31.5 82v380h78z" />
    <glyph glyph-name="uniF76B" unicode="&#xf76b;" horiz-adv-x="534" 
d="M207 243l-54 -58v-185h-78v550h78v-275l249 275h97l-242 -261l263 -289h-97z" />
    <glyph glyph-name="uniF76C" unicode="&#xf76c;" horiz-adv-x="458" 
d="M75 550h78v-481h267v-69h-345v550z" />
    <glyph glyph-name="uniF76D" unicode="&#xf76d;" horiz-adv-x="719" 
d="M565 432l-188 -432h-34l-190 432v-432h-78v550h107l177 -407l177 407h108v-550h-79v432z" />
    <glyph glyph-name="uniF76E" unicode="&#xf76e;" horiz-adv-x="632" 
d="M153 428v-428h-78v550h82l321 -420v420h79v-550h-79z" />
    <glyph glyph-name="uniF76F" unicode="&#xf76f;" horiz-adv-x="662" 
d="M331 -12q-127 0 -205.5 81.5t-78.5 205.5t78.5 205.5t205.5 81.5q126 0 205 -82t79 -205t-79 -205t-205 -82zM331 57q91 0 147.5 62t56.5 156q0 95 -56.5 156.5t-147.5 61.5q-92 0 -148 -61.5t-56 -156.5t56 -156.5t148 -61.5z" />
    <glyph glyph-name="uniF770" unicode="&#xf770;" horiz-adv-x="522" 
d="M75 550h236q85 0 133 -48.5t48 -119.5q0 -72 -47 -120.5t-134 -48.5h-158v-213h-78v550zM153 282h151q52 0 79.5 27.5t27.5 72.5q0 44 -28 71.5t-79 27.5h-151v-199z" />
    <glyph glyph-name="uniF771" unicode="&#xf771;" horiz-adv-x="662" 
d="M537 -29l-53 58q-68 -41 -153 -41q-127 0 -205.5 81.5t-78.5 205.5t78.5 205.5t205.5 81.5q126 0 205 -82t79 -205q0 -126 -80 -206l51 -57zM408 209l76 -84q51 61 51 150q0 95 -56.5 156.5t-147.5 61.5q-92 0 -148 -61.5t-56 -156.5t56 -156.5t148 -61.5q58 0 104 26
l-76 84z" />
    <glyph glyph-name="uniF772" unicode="&#xf772;" horiz-adv-x="545" 
d="M264 213h-111v-213h-78v550h236q84 0 132.5 -47.5t48.5 -120.5q0 -70 -41 -114t-107 -49l156 -219h-92zM153 282h151q52 0 80 27.5t28 72.5q0 44 -28.5 71.5t-79.5 27.5h-151v-199z" />
    <glyph glyph-name="uniF773" unicode="&#xf773;" horiz-adv-x="504" 
d="M455 483l-41 -55q-62 66 -166 66q-51 0 -84.5 -24.5t-33.5 -62.5q0 -28 25 -46t62.5 -26.5t81.5 -21.5t81.5 -28t62.5 -49t25 -83q0 -73 -55 -119t-161 -46q-143 0 -220 86l42 59q31 -33 78 -55.5t101 -22.5q68 0 101.5 27t33.5 68q0 38 -35 60t-84.5 33.5t-99 25
t-84.5 47.5t-35 89q0 69 57 113t142 44q129 0 206 -79z" />
    <glyph glyph-name="uniF774" unicode="&#xf774;" horiz-adv-x="472" 
d="M196 481h-170v69h419v-69h-171v-481h-78v481z" />
    <glyph glyph-name="uniF775" unicode="&#xf775;" horiz-adv-x="623" 
d="M548 550v-338q0 -104 -61 -164t-176 -60t-175.5 60t-60.5 164v338h79v-333q0 -75 41 -117.5t116 -42.5q76 0 117 43t41 117v333h79z" />
    <glyph glyph-name="uniF776" unicode="&#xf776;" horiz-adv-x="572" 
d="M7 550h89l190 -463l192 463h87l-232 -550h-94z" />
    <glyph glyph-name="uniF777" unicode="&#xf777;" horiz-adv-x="764" 
d="M381 431l-124 -431h-82l-165 550h87l123 -443l129 443h66l128 -444l124 444h86l-165 -550h-82z" />
    <glyph glyph-name="uniF778" unicode="&#xf778;" horiz-adv-x="567" 
d="M283 229l-181 -229h-93l224 282l-212 268h94l168 -215l168 215h94l-212 -267l225 -283h-94z" />
    <glyph glyph-name="uniF779" unicode="&#xf779;" horiz-adv-x="547" 
d="M236 233l-229 317h91l177 -250l174 250h91l-226 -317v-233h-78v233z" />
    <glyph glyph-name="uniF77A" unicode="&#xf77a;" horiz-adv-x="516" 
d="M39 59l326 422h-326v69h431v-59l-325 -422h332v-69h-438v59z" />
    <glyph glyph-name="uniF8FF" unicode="&#xf8ff;" horiz-adv-x="667" 
d="M441 265h73q46 0 78.5 -32.5t32.5 -78.5t-32.5 -79t-78.5 -33t-79 33t-33 79v74h-137v-74q0 -46 -33 -79t-79 -33t-78.5 33t-32.5 79t32.5 78.5t78.5 32.5h73v137h-72q-46 0 -79 33t-33 79t33 78.5t79 32.5t78.5 -32.5t32.5 -78.5v-75h137v75q0 46 33 78.5t79 32.5
t78.5 -32.5t32.5 -78.5t-32.5 -79t-78.5 -33h-73v-137zM226 439v75q0 31 -20.5 52.5t-51.5 21.5t-52.5 -21.5t-21.5 -52.5t21.5 -53t52.5 -22h72zM441 439h73q30 0 51 22t21 53t-20.5 52.5t-51.5 21.5t-52 -21.5t-21 -52.5v-75zM402 402h-137v-137h137v137zM226 228h-74
q-31 0 -51.5 -21.5t-20.5 -52.5t21 -53t52 -22t52 22t21 53v74zM441 228v-74q0 -31 21 -53t52 -22q30 0 51 22t21 53t-20.5 52.5t-51.5 21.5h-73z" />
    <glyph glyph-name="zero.pzero" horiz-adv-x="612" 
d="M546 667l-54 -87q69 -96 69 -247q0 -64 -14.5 -123t-44 -110t-80.5 -81.5t-116 -30.5q-88 0 -149 55l-27 -43h-65l54 86q-68 95 -68 247q0 64 14.5 123t44 109.5t80 81t116.5 30.5q85 0 147 -54l28 44h65zM166 162l246 394q-42 47 -106 47q-60 0 -100 -41t-55 -99
t-15 -130q0 -101 30 -171zM445 504l-246 -394q42 -48 107 -48q60 0 100 41.5t55 99.5t15 130q0 102 -31 171z" />
    <glyph glyph-name="zero.tonumzero" horiz-adv-x="598" 
d="M530 550l-48 -65q72 -81 72 -210q0 -75 -25.5 -138t-85 -106t-144.5 -43q-87 0 -150 45l-24 -33h-67l52 71q-66 79 -66 204q0 56 15 106t45 91t80.5 65.5t114.5 24.5q82 0 143 -41l22 29h66zM161 140l234 317q-41 31 -96 31q-84 0 -127 -62t-43 -151q0 -80 32 -135z
M432 417l-236 -320q41 -35 103 -35q84 0 127 62t43 151q0 83 -37 142z" />
    <glyph glyph-name="zero.onumzero" horiz-adv-x="612" 
d="M537 550l-48 -65q72 -81 72 -210q0 -75 -25.5 -138t-85 -106t-144.5 -43q-87 0 -150 45l-24 -33h-67l52 71q-66 79 -66 204q0 56 15 106t45 91t80.5 65.5t114.5 24.5q82 0 143 -41l22 29h66zM168 140l234 317q-41 31 -96 31q-84 0 -127 -62t-43 -151q0 -80 32 -135z
M439 417l-236 -320q41 -35 103 -35q84 0 127 62t43 151q0 83 -37 142z" />
    <glyph glyph-name="G.alt1" horiz-adv-x="730" 
d="M344 343h364q0 -160 -84.5 -258t-235.5 -98q-141 0 -239 97t-98 249q0 153 99 249t244 96q158 0 259 -125l-66 -41q-32 42 -83.5 67t-109.5 25q-110 0 -183.5 -76.5t-73.5 -194.5t73.5 -195t183.5 -77q97 0 154 59t70 149h-274v74z" />
    <glyph glyph-name="a.alt1" horiz-adv-x="575" 
d="M425 0v72q-62 -84 -163 -84q-96 0 -155.5 68.5t-59.5 184.5q0 115 59.5 184.5t155.5 69.5q101 0 162 -85v73h76v-483h-75zM425 131v219q-21 33 -61.5 55.5t-83.5 22.5q-71 0 -113 -52.5t-42 -134.5t42 -134t113 -52q44 0 84 22t61 54z" />
    <glyph glyph-name="f.alt1" horiz-adv-x="283" 
d="M96 417h-80v66h80v37q0 74 38 115.5t102 41.5q46 0 73 -17l-19 -57q-19 12 -43 12q-37 0 -56.5 -24.5t-19.5 -70.5v-37h98v-66h-98v-417h-75v417z" />
    <glyph glyph-name="l.alt1" horiz-adv-x="268" 
d="M249 75l22 -56q-33 -31 -89 -31q-53 0 -80 29t-27 84v566h75v-550q0 -28 12.5 -45t36.5 -17q32 0 50 20z" />
    <glyph glyph-name="y.alt1" horiz-adv-x="551" 
d="M476 483v-470q0 -103 -62.5 -156t-158.5 -53q-111 0 -185 72l38 56q52 -66 147 -66q69 0 107.5 38.5t38.5 108.5v65q-30 -34 -75.5 -57t-96.5 -23q-154 0 -154 154v331h75v-308q0 -61 27.5 -86t80.5 -25q42 0 81.5 21t61.5 52v346h75z" />
    <glyph glyph-name="G.smcp.alt1" horiz-adv-x="642" 
d="M318 287h290q0 -136 -74 -217.5t-196 -81.5q-124 0 -207.5 80.5t-83.5 206.5q0 127 84 207t210 80q134 0 221 -101l-61 -41q-61 73 -160 73q-91 0 -152 -61.5t-61 -156.5q0 -94 61 -156.5t152 -62.5q71 0 122.5 44.5t61.5 120.5h-207v66z" />
    <glyph glyph-name="uni0430.alt1" horiz-adv-x="575" 
d="M425 0v72q-62 -84 -163 -84q-96 0 -155.5 68.5t-59.5 184.5q0 115 59.5 184.5t155.5 69.5q101 0 162 -85v73h76v-483h-75zM425 131v219q-21 33 -61.5 55.5t-83.5 22.5q-71 0 -113 -52.5t-42 -134.5t42 -134t113 -52q44 0 84 22t61 54z" />
    </font>
</defs>
</svg>
